<?xml version="1.0" standalone="no"?>
<!DOCTYPE svg PUBLIC "-//W3C//DTD SVG 20010904//EN"
 "http://www.w3.org/TR/2001/REC-SVG-20010904/DTD/svg10.dtd">
<svg version="1.0" xmlns="http://www.w3.org/2000/svg"
 width="1704.000000pt" height="1704.000000pt" viewBox="0 0 1704.000000 1704.000000"
 preserveAspectRatio="xMidYMid meet">

<g transform="translate(0.000000,1704.000000) scale(0.100000,-0.100000)"
fill="#C53E3E" stroke="none">
<path d="M11159 16424 c-9 -3 -19 -19 -23 -36 -10 -53 -21 -58 -111 -58 -61 0
-86 -4 -95 -15 -7 -8 -23 -15 -37 -15 -22 0 -24 3 -21 38 l3 37 -44 0 c-41 0
-45 -2 -55 -33 -17 -50 -36 -56 -121 -42 -55 9 -77 10 -94 1 -19 -10 -25 -8
-51 17 -26 26 -37 30 -113 35 -47 3 -88 3 -92 -1 -4 -4 -39 -8 -78 -9 -40 -2
-115 -4 -167 -6 -52 -2 -104 -8 -116 -14 -11 -7 -56 -15 -100 -18 -52 -5 -88
-13 -105 -26 -22 -15 -36 -17 -77 -10 -65 10 -90 -3 -122 -66 -22 -42 -29 -48
-60 -51 -25 -2 -43 3 -60 18 -18 15 -35 20 -65 18 -39 -3 -40 -4 -41 -41 -2
-63 -16 -66 -86 -18 -54 38 -73 45 -135 52 -40 4 -89 15 -108 25 -41 19 -137
13 -198 -13 -36 -16 -42 -16 -85 1 -118 46 -177 45 -222 -4 -25 -27 -43 -32
-160 -46 -42 -5 -48 -3 -99 41 -50 43 -57 46 -95 40 -51 -8 -96 -24 -118 -43
-21 -18 -64 -4 -99 34 -21 22 -30 24 -117 24 -82 0 -93 -2 -88 -16 17 -43 18
-67 5 -75 -25 -16 -38 -10 -90 41 -54 53 -88 63 -118 36 -12 -11 -54 -16 -151
-20 l-135 -6 -31 -35 c-28 -32 -127 -85 -157 -85 -7 0 -33 21 -57 46 -60 61
-91 77 -125 64 -38 -14 -81 -12 -140 6 -54 17 -105 13 -105 -9 -1 -32 -16 -39
-48 -23 -17 9 -55 16 -84 16 -30 0 -78 6 -108 14 -30 7 -89 17 -131 20 -64 6
-85 3 -128 -14 -55 -21 -126 -27 -136 -10 -8 13 -184 2 -201 -12 -7 -5 -12
-25 -11 -44 1 -27 -5 -40 -29 -59 -56 -45 -91 -50 -189 -25 -61 15 -101 20
-131 15 -43 -6 -45 -5 -58 27 -8 18 -24 42 -35 52 -20 18 -21 17 -76 -29 -67
-58 -113 -69 -202 -51 -97 21 -143 4 -143 -51 0 -31 -26 -42 -88 -36 -64 7
-87 32 -80 89 4 33 3 35 -21 29 -14 -3 -33 -15 -42 -27 -10 -13 -31 -22 -55
-24 -64 -6 -87 -14 -121 -40 -17 -13 -40 -24 -49 -24 -26 0 -76 37 -107 81
-27 37 -29 38 -75 32 -41 -4 -52 -2 -77 19 -51 43 -69 43 -88 3 -19 -40 -36
-43 -84 -14 -28 17 -42 20 -81 14 -81 -13 -243 -8 -322 10 -41 9 -82 16 -90
16 -84 -5 -207 2 -224 12 -12 7 -65 13 -121 14 -55 1 -127 5 -160 8 -54 6 -63
4 -89 -18 -21 -19 -45 -27 -95 -32 -36 -3 -102 -13 -146 -20 -44 -7 -121 -17
-172 -20 -71 -6 -96 -12 -109 -26 -22 -24 -40 -24 -89 1 l-38 20 -48 -30 c-46
-28 -50 -29 -84 -15 -29 13 -62 14 -199 6 -91 -5 -175 -7 -187 -4 -13 4 -20 2
-16 -4 11 -17 -23 -54 -46 -51 -28 4 -35 38 -11 55 11 8 14 16 8 21 -17 15
-79 31 -115 30 -21 0 -47 3 -59 7 -12 4 -75 1 -141 -5 -132 -14 -139 -12 -163
45 -10 24 -23 34 -57 44 -24 7 -55 23 -69 36 -40 36 -73 39 -109 9 -28 -23
-35 -25 -63 -15 -17 6 -43 11 -57 11 -41 0 -95 -32 -101 -60 -7 -31 -121 -102
-204 -126 -23 -7 -34 -20 -49 -59 -10 -27 -28 -72 -39 -99 -19 -46 -31 -103
-28 -136 0 -8 3 -47 6 -87 4 -56 2 -77 -11 -97 -15 -23 -15 -30 -1 -86 9 -34
16 -76 16 -95 0 -25 9 -41 40 -71 44 -43 47 -51 25 -68 -15 -11 -20 -59 -15
-159 1 -27 -4 -61 -10 -77 -10 -23 -8 -33 9 -61 25 -41 26 -62 5 -83 -8 -9
-13 -24 -10 -33 3 -10 2 -43 -3 -73 -5 -32 -5 -108 0 -179 9 -138 -2 -204 -47
-271 -28 -40 -30 -60 -10 -99 8 -15 14 -41 14 -57 -1 -35 21 -129 39 -163 8
-17 9 -30 2 -44 -9 -15 -4 -25 30 -56 23 -21 41 -43 41 -50 0 -17 -19 -52 -43
-78 -17 -19 -19 -31 -13 -77 9 -77 12 -83 62 -102 34 -13 44 -22 44 -39 0 -26
-15 -41 -52 -50 -58 -15 -37 -75 39 -110 38 -18 53 -31 53 -45 0 -11 -5 -20
-10 -20 -16 0 -70 -42 -70 -54 0 -6 4 -17 9 -25 8 -12 17 -10 51 13 53 35 75
29 65 -20 -10 -57 -26 -83 -62 -106 -60 -36 -64 -93 -11 -147 28 -29 29 -34
26 -103 l-3 -72 39 -7 c59 -10 76 -55 32 -85 -19 -12 -38 -14 -81 -9 -46 6
-59 4 -75 -10 -21 -19 -27 -60 -10 -70 6 -4 20 -25 32 -48 19 -37 22 -57 21
-170 -1 -141 -3 -136 67 -180 60 -38 51 -117 -14 -117 -40 0 -59 -20 -76 -82
-8 -30 -19 -50 -31 -53 -31 -10 -27 -98 6 -131 l24 -24 -24 -36 c-34 -50 -31
-73 15 -135 49 -65 54 -113 15 -149 -24 -23 -29 -37 -39 -132 -4 -36 -1 -51
11 -64 16 -15 16 -23 1 -108 -11 -66 -13 -106 -7 -147 7 -45 5 -72 -10 -131
-13 -50 -18 -101 -17 -154 2 -52 -2 -90 -12 -113 -17 -43 -20 -145 -3 -165 8
-10 10 -33 6 -73 -6 -54 -4 -63 29 -127 20 -38 36 -78 36 -88 0 -11 -11 -39
-25 -62 -23 -39 -25 -52 -25 -162 1 -65 1 -173 1 -239 0 -66 -5 -142 -11 -170
-6 -27 -13 -91 -16 -141 l-5 -91 41 -41 c44 -46 48 -62 25 -106 -8 -15 -15
-45 -15 -65 0 -20 -6 -48 -14 -62 -18 -35 -19 -109 -1 -109 7 0 23 -8 36 -19
22 -18 22 -19 6 -54 -9 -19 -17 -50 -17 -69 0 -18 -12 -55 -25 -83 -24 -48
-24 -53 -15 -173 5 -69 7 -134 4 -146 -20 -80 -17 -442 5 -545 12 -60 -13
-136 -72 -213 -31 -41 -29 -76 4 -109 11 -11 19 -32 19 -47 0 -16 7 -43 16
-61 15 -29 14 -34 -3 -70 -22 -44 -23 -152 -1 -178 19 -24 14 -213 -9 -280
-16 -50 -16 -54 1 -90 14 -29 16 -50 11 -109 -7 -73 5 -133 40 -201 14 -26 10
-51 -9 -68 -6 -5 -22 -32 -35 -58 -25 -53 -25 -82 4 -157 14 -37 18 -93 22
-315 3 -148 6 -301 7 -340 2 -38 -1 -78 -6 -88 -6 -12 -5 -23 2 -32 9 -11 6
-33 -14 -96 -29 -93 -32 -131 -12 -148 24 -20 29 -118 10 -186 -20 -75 -20
-178 2 -240 12 -37 14 -69 10 -142 -5 -70 -3 -104 8 -137 22 -64 30 -185 16
-221 -7 -16 -16 -83 -21 -147 -4 -65 -13 -127 -20 -139 -13 -25 -7 -132 9
-152 12 -16 39 -125 50 -204 6 -44 5 -68 -4 -86 -17 -31 -18 -90 -5 -252 6
-71 8 -155 5 -185 -3 -30 0 -86 6 -124 6 -38 11 -89 12 -115 0 -34 7 -54 26
-76 l25 -30 -30 -12 c-42 -17 -55 -37 -60 -89 -2 -25 -12 -62 -22 -83 -18 -33
-19 -53 -14 -197 2 -87 9 -163 14 -169 17 -17 9 -42 -21 -72 -30 -29 -30 -31
-30 -134 0 -57 3 -167 5 -244 7 -163 6 -204 -1 -227 -3 -9 5 -35 18 -57 l22
-39 -43 -86 c-36 -71 -42 -93 -38 -123 5 -27 1 -42 -13 -61 -28 -35 -26 -93 4
-140 31 -47 101 -122 114 -122 13 0 42 -28 42 -40 0 -5 -9 -18 -21 -28 -38
-36 -25 -152 16 -152 16 0 62 -54 82 -95 10 -22 40 -45 101 -80 48 -27 93 -57
100 -66 6 -10 27 -21 45 -24 17 -4 52 -17 77 -29 64 -30 169 -30 202 1 13 12
47 34 75 50 64 34 168 133 177 167 3 13 21 44 38 68 80 108 81 126 3 213 -42
48 -51 65 -56 108 -3 29 -1 75 4 102 15 71 8 460 -9 486 -8 13 -18 65 -30 159
-4 26 1 82 10 131 23 123 22 273 -3 313 -28 45 -55 159 -47 200 7 37 35 65 84
85 45 19 55 51 31 97 -11 23 -19 59 -19 90 0 52 -13 73 -54 88 -14 5 -16 12
-11 29 4 12 10 45 12 72 2 28 10 64 18 80 7 17 17 42 20 58 4 15 11 30 16 33
5 3 9 11 9 19 0 10 -12 13 -42 12 -34 -2 -43 2 -46 16 -5 25 24 67 47 67 30 0
46 26 33 54 -14 31 -15 203 -1 327 10 104 8 118 -37 179 -22 30 -25 42 -20 85
4 37 12 55 30 70 35 28 57 153 44 251 -6 38 -8 122 -5 187 5 142 -10 231 -43
254 -17 12 -20 21 -15 42 21 82 10 209 -23 280 -13 28 -13 40 -3 82 7 26 9 54
5 61 -9 14 -20 127 -32 319 -5 85 -12 122 -25 142 -18 28 -18 28 12 56 26 24
31 37 31 73 0 24 -11 64 -24 91 -17 35 -22 59 -19 90 4 37 1 48 -28 84 -19 23
-50 48 -70 57 -19 8 -40 21 -47 28 -6 8 -24 63 -38 122 -31 124 -28 140 36
182 31 21 46 25 58 18 17 -11 20 -17 46 -77 21 -50 43 -57 73 -23 18 22 23 39
23 85 0 58 18 91 49 91 21 0 34 46 27 95 -6 35 -13 49 -32 57 -25 12 -37 42
-50 127 -6 40 -5 46 20 66 l26 21 -20 58 c-19 55 -19 60 -3 86 16 28 15 29
-20 79 -21 28 -37 61 -37 74 0 12 12 50 27 85 l26 62 -21 23 c-36 38 -55 121
-49 212 4 70 2 86 -19 130 -24 51 -56 177 -58 230 -1 28 1 30 42 33 49 4 62
23 62 95 0 23 10 67 22 97 28 73 29 181 2 211 -10 12 -29 25 -41 30 -12 4 -33
26 -47 48 -14 22 -30 42 -36 46 -18 11 -11 42 15 59 44 29 59 61 46 98 -6 18
-22 44 -35 58 -22 23 -30 45 -27 78 1 7 15 12 35 12 39 0 55 15 62 62 5 26 1
38 -15 52 -34 31 -22 157 25 264 18 42 24 72 24 131 0 42 7 101 15 131 8 30
15 75 15 100 0 25 7 54 15 65 10 12 13 30 9 51 -4 20 0 43 11 64 17 32 17 55
-1 166 -4 32 -1 51 17 85 29 55 32 173 5 213 -9 14 -16 42 -16 63 1 39 19 119
33 140 4 7 5 42 1 79 -7 62 -11 70 -51 111 -49 50 -53 74 -22 134 27 54 15 69
-58 69 -62 0 -76 16 -49 60 20 35 20 70 1 134 -8 27 -15 63 -15 80 -1 35 -34
80 -67 91 -31 9 -29 39 4 65 22 18 36 21 68 16 22 -3 56 -9 75 -11 19 -3 42
-1 50 4 13 9 12 15 -5 47 -25 46 -45 58 -121 75 -75 15 -85 22 -113 76 -39 78
-22 131 39 118 34 -7 50 -30 50 -70 0 -36 17 -65 39 -65 24 0 45 25 38 45 -11
26 14 27 38 1 28 -30 53 -32 100 -10 45 21 48 34 22 93 -19 46 -24 51 -53 51
-37 0 -57 16 -84 71 -31 60 -26 79 27 119 52 39 80 85 114 193 18 59 20 72 8
93 -7 14 -24 27 -38 30 -46 10 -71 27 -71 48 0 46 22 96 50 116 17 12 30 28
30 35 0 8 9 20 20 28 19 13 20 19 10 158 -15 223 -15 231 20 274 17 21 30 47
30 58 0 24 -27 46 -58 47 -53 0 -62 15 -62 96 0 74 19 144 39 144 6 0 11 7 11
15 0 8 11 22 24 30 42 28 41 121 -2 151 -33 23 -55 115 -47 195 8 81 16 88 80
67 24 -9 47 -13 50 -10 3 3 5 24 5 46 0 23 7 63 15 89 10 33 14 92 14 182 0
81 6 165 15 216 9 46 20 165 25 264 6 125 14 194 26 225 13 35 17 80 17 209
-1 127 3 169 14 185 8 11 14 36 14 56 0 19 9 52 20 73 11 20 20 43 20 51 0 8
41 61 92 118 103 115 104 116 214 212 43 38 86 80 94 93 8 14 46 39 85 56 67
31 75 32 180 29 74 -2 114 -7 125 -16 19 -18 112 -37 125 -27 13 11 134 25
205 24 51 0 129 -9 271 -32 31 -5 67 -15 80 -22 35 -20 211 -17 274 3 76 25
232 34 277 15 19 -8 60 -16 89 -18 45 -3 61 1 95 24 l40 27 75 -15 c168 -36
207 -39 229 -20 14 13 40 19 92 21 57 3 76 8 88 23 8 10 29 21 45 24 61 11
113 27 166 52 46 21 68 25 154 25 55 0 106 4 114 9 9 6 11 18 7 38 -13 57 49
69 101 21 22 -20 83 -162 83 -191 0 -8 8 -21 19 -31 17 -16 26 -15 152 5 74
12 141 28 149 35 32 26 156 67 209 68 40 1 57 5 65 19 9 15 7 20 -8 29 -61 35
-65 64 -19 125 21 27 28 31 44 23 10 -6 23 -27 28 -47 6 -19 20 -46 32 -59 20
-21 21 -27 9 -49 -12 -23 -11 -28 11 -51 17 -18 31 -24 49 -21 33 7 135 44
185 67 22 10 69 24 105 31 42 7 74 20 91 35 35 33 45 30 53 -16 8 -48 27 -56
119 -46 34 4 98 9 142 12 133 8 129 6 121 72 -4 36 -14 64 -27 78 -14 15 -17
24 -9 29 18 11 83 -4 125 -30 83 -50 81 -50 141 -31 31 10 66 15 79 12 12 -3
54 -38 92 -77 82 -84 103 -87 103 -15 0 33 7 52 26 75 36 43 68 40 123 -10
l44 -40 -17 -36 c-14 -29 -15 -38 -4 -44 29 -19 78 2 141 57 49 45 85 45 129
1 46 -46 76 -63 125 -70 44 -7 170 14 236 39 29 11 67 12 175 7 140 -6 184
-18 326 -88 53 -27 92 -29 129 -6 19 12 39 21 45 21 33 0 120 43 132 65 7 13
30 31 51 39 20 8 40 20 44 26 3 6 24 19 45 30 33 17 43 18 65 8 23 -10 39 -40
34 -64 -7 -37 34 -54 126 -54 82 0 93 10 101 92 6 57 4 72 -12 95 -13 19 -19
46 -19 85 l0 58 44 0 c38 0 48 5 80 40 38 42 70 51 91 25 20 -24 5 -84 -30
-120 -34 -35 -39 -74 -14 -120 9 -16 20 -43 23 -60 8 -36 47 -48 58 -18 10 29
55 73 75 73 19 0 22 -5 32 -53 9 -39 51 -55 89 -33 40 22 56 20 67 -8 20 -52
86 -60 108 -13 18 37 48 48 104 36 86 -19 168 21 168 79 0 16 6 37 14 48 21
27 47 9 68 -50 22 -62 35 -76 69 -76 16 0 39 -11 55 -25 15 -14 31 -25 35 -25
5 0 25 -16 44 -36 27 -27 42 -34 58 -30 12 3 32 6 45 6 19 0 22 5 22 40 0 55
20 64 90 38 30 -12 80 -35 110 -52 72 -41 144 -66 170 -59 13 4 29 -2 43 -15
12 -11 45 -31 72 -45 96 -47 120 -61 126 -70 4 -5 42 -12 85 -15 72 -4 82 -7
110 -36 16 -17 38 -43 47 -58 16 -26 22 -28 83 -28 35 0 81 7 101 15 21 9 67
15 117 15 44 0 98 3 120 7 l38 6 -4 48 c-7 69 2 79 74 79 l61 0 -6 -41 c-8
-60 6 -89 42 -89 56 0 74 45 36 90 -40 48 -20 88 34 69 18 -6 52 -9 76 -6 52
8 60 0 69 -66 7 -43 9 -46 27 -37 10 6 26 25 35 42 14 28 15 40 4 99 -19 101
-19 101 100 93 92 -6 102 -5 115 12 8 10 15 27 15 37 0 20 30 23 63 6 28 -15
37 -28 37 -56 0 -41 21 -69 68 -91 45 -20 102 -21 102 -2 0 5 -18 27 -39 49
-53 55 -57 73 -30 119 44 73 75 79 143 27 72 -55 146 -80 161 -55 12 19 -22
56 -78 88 -30 17 -57 39 -61 49 -10 25 21 45 63 41 29 -3 36 -8 45 -36 10 -29
20 -36 70 -53 47 -16 75 -19 137 -15 l79 6 16 -38 c10 -22 18 -32 21 -24 3 8
0 25 -7 38 -18 33 8 71 55 80 42 8 65 -8 65 -45 0 -14 12 -49 26 -78 33 -64
28 -91 -23 -118 -46 -25 -57 -55 -19 -55 14 0 35 9 46 20 28 28 68 25 119 -10
60 -41 87 -40 106 6 8 20 12 47 9 59 -5 21 -1 25 29 30 45 9 57 1 57 -35 0
-31 27 -58 80 -80 43 -18 63 1 32 30 -35 33 -28 50 18 50 43 0 63 21 54 57 -5
17 0 22 31 27 37 7 37 8 31 45 -9 58 10 77 75 74 28 -1 54 -5 57 -8 6 -6 -15
-77 -35 -118 -10 -21 -11 -32 -2 -48 10 -19 17 -21 70 -16 33 3 71 13 85 22
46 30 135 -7 207 -84 36 -39 76 -59 95 -47 5 3 6 26 2 50 -8 52 -4 61 29 61
27 0 35 13 21 35 -8 13 -13 13 -30 2 -39 -24 -70 29 -34 59 8 7 24 30 35 51
18 34 23 38 59 38 42 0 45 4 52 70 3 24 5 25 68 22 65 -3 99 -19 86 -41 -4 -6
-22 -11 -39 -11 -39 0 -77 -24 -77 -49 0 -31 29 -90 49 -101 52 -27 181 -1
181 38 0 10 7 28 16 41 13 18 14 28 5 48 -7 14 -9 28 -7 31 10 10 36 -21 36
-43 0 -12 7 -28 15 -35 9 -7 23 -28 32 -48 18 -38 89 -94 112 -89 19 3 19 66
1 77 -16 10 -9 44 10 48 30 5 50 -22 60 -81 11 -70 15 -77 45 -77 26 0 35 17
35 65 0 57 7 57 142 -12 14 -7 29 -13 32 -13 3 0 6 36 6 79 0 44 5 83 10 86
21 13 46 -7 82 -65 20 -33 50 -68 66 -77 61 -38 112 -90 118 -121 8 -40 29
-58 76 -65 45 -7 88 12 137 60 19 19 45 36 58 39 34 9 106 -17 118 -43 11 -25
48 -45 70 -37 9 4 15 18 15 35 0 23 -8 34 -40 54 -47 30 -53 61 -14 75 34 13
60 -2 67 -39 5 -23 16 -34 53 -50 26 -12 53 -21 60 -21 8 0 22 -5 32 -11 12
-8 41 -9 84 -5 61 7 65 9 76 40 7 18 12 39 12 46 0 7 16 37 36 66 59 85 72
180 35 249 -12 24 -21 58 -21 85 0 25 -6 54 -13 65 -21 30 -27 64 -16 93 9 22
4 30 -43 73 -29 26 -61 48 -70 49 -10 0 -51 -9 -92 -20 -89 -25 -113 -19 -171
45 l-40 44 -89 6 c-50 4 -97 10 -106 15 -10 5 -76 10 -149 11 -126 1 -132 0
-151 -22 -11 -13 -20 -33 -20 -44 -1 -40 -8 -43 -140 -62 -21 -3 -44 -15 -57
-31 l-23 -27 -45 24 c-36 19 -51 22 -77 15 -49 -14 -58 -38 -25 -72 41 -43 36
-69 -19 -92 -57 -25 -71 -25 -84 0 -6 11 -17 20 -25 20 -7 0 -17 9 -20 20 -8
26 -69 66 -112 75 -18 4 -39 16 -47 27 -10 13 -27 21 -53 22 -38 2 -139 52
-163 81 -7 8 -18 15 -26 15 -7 0 -35 14 -63 31 l-51 32 -112 -11 c-96 -10
-114 -10 -128 3 -22 20 -74 19 -95 -1 -14 -15 -13 -19 15 -51 34 -39 35 -56 1
-61 -12 -2 -26 -14 -31 -28 -5 -13 -14 -24 -19 -24 -5 0 -16 -3 -25 -6 -24 -9
-20 31 5 47 16 11 19 20 14 42 -10 40 -32 45 -61 13 -32 -34 -83 -35 -146 -1
-45 24 -118 34 -118 17 0 -5 14 -21 30 -37 35 -34 38 -50 10 -65 -19 -10 -34
-5 -90 30 -8 5 -42 22 -76 38 -54 26 -63 28 -80 15 -10 -8 -30 -12 -44 -9 -14
2 -43 0 -66 -6 l-41 -11 -65 65 c-81 80 -108 88 -205 58 -37 -12 -90 -33 -116
-47 -41 -21 -61 -25 -133 -24 -101 1 -124 6 -184 37 -55 28 -157 54 -213 54
-23 0 -56 -8 -72 -19 -17 -10 -58 -21 -90 -25 -33 -4 -72 -12 -87 -17 -21 -9
-32 -7 -50 5 -12 9 -39 16 -59 16 -30 0 -44 -7 -70 -35 -22 -22 -42 -35 -59
-35 -23 1 -41 8 -157 70 -46 24 -82 24 -248 0 -95 -13 -173 -7 -224 19 -27 14
-75 22 -179 30 -149 11 -177 18 -187 51 -3 11 -12 20 -18 20 -7 0 -21 2 -32 4
-11 2 -27 2 -36 0z m2615 -269 c-4 -8 -14 -15 -24 -15 -10 0 -20 7 -24 15 -4
11 2 15 24 15 22 0 28 -4 24 -15z m-3740 -6 c62 -28 34 -103 -29 -79 -29 11
-43 53 -25 75 15 18 22 18 54 4z m-7006 -116 c-3 -15 -85 -49 -95 -40 -9 10
27 66 44 69 26 6 55 -11 51 -29z m4482 3 c0 -18 -17 -29 -30 -21 -8 5 -7 11 1
21 15 18 29 18 29 0z m-1330 -91 c17 -20 8 -112 -13 -132 -35 -36 -87 10 -87
77 0 54 69 92 100 55z m1054 0 c3 -9 0 -15 -9 -15 -8 0 -15 7 -15 15 0 8 4 15
9 15 5 0 11 -7 15 -15z m1296 -65 c0 -14 -31 -41 -44 -37 -16 5 -20 36 -6 52
9 11 17 12 31 4 10 -5 19 -14 19 -19z m-1862 -14 c4 -19 -24 -56 -42 -56 -5 0
-27 -16 -47 -36 -30 -29 -43 -35 -62 -30 -34 8 -114 85 -122 116 l-6 26 138
-1 c122 -2 138 -4 141 -19z m2172 -17 c0 -16 -4 -29 -10 -29 -21 0 -25 2 -22
11 1 5 4 20 6 32 3 12 5 23 5 25 1 2 6 0 11 -3 6 -3 10 -19 10 -36z m5545 14
c14 -15 25 -33 25 -40 0 -18 -41 -43 -72 -43 -50 0 -83 57 -52 91 25 28 68 24
99 -8z m-9657 -21 c2 -7 -3 -12 -12 -12 -9 0 -16 7 -16 16 0 17 22 14 28 -4z
m165 3 c8 -19 -13 -31 -23 -14 -9 14 -4 29 10 29 4 0 10 -7 13 -15z m5867 -17
c11 -18 25 -50 31 -72 15 -54 -3 -70 -79 -71 -52 0 -57 2 -60 23 -4 24 63 152
79 152 5 0 18 -15 29 -32z m3103 -28 c-2 -73 -1 -70 -18 -70 -9 0 -15 9 -15
24 0 13 -7 29 -15 36 -30 25 -9 73 30 68 17 -3 20 -10 18 -58z m-6872 28 c10
-18 8 -24 -12 -39 -37 -28 -98 -45 -117 -32 -32 19 -23 38 30 64 66 33 84 35
99 7z m-1546 -9 c4 -11 4 -23 0 -27 -9 -9 -40 13 -43 32 -5 24 35 20 43 -5z
m-3490 1 c3 -5 1 -10 -4 -10 -6 0 -11 5 -11 10 0 6 2 10 4 10 3 0 8 -4 11 -10z
m518 -18 c11 -17 -6 -62 -24 -62 -24 0 -32 16 -25 46 6 23 39 34 49 16z m4773
-3 c3 -6 2 -15 -3 -20 -13 -13 -43 -1 -43 17 0 16 36 19 46 3z m-4147 -10 c53
-19 78 -91 45 -137 -28 -40 -62 -25 -98 45 -26 51 -18 91 20 103 1 0 15 -5 33
-11z m6788 -14 c27 -24 28 -25 9 -40 -30 -23 -65 -19 -78 9 -24 55 20 75 69
31z m1415 -25 c3 -16 1 -30 -4 -30 -4 0 -8 14 -8 30 0 17 2 30 4 30 2 0 6 -13
8 -30z m-6144 3 c-4 -22 -22 -20 -26 1 -2 10 3 16 13 16 10 0 15 -7 13 -17z
m910 -9 c12 -8 22 -25 22 -36 0 -25 -27 -58 -47 -58 -17 0 -53 58 -53 88 0 17
6 22 28 22 15 0 38 -7 50 -16z m-1470 -46 c14 -14 16 -54 3 -62 -12 -7 -95 4
-112 15 -11 6 -11 13 -3 26 18 29 90 43 112 21z m-2373 -16 c0 -18 -20 -15
-23 4 -3 10 1 15 10 12 7 -3 13 -10 13 -16z m10501 8 c20 0 18 -27 -3 -39 -12
-6 -26 -5 -47 6 -29 15 -29 16 -11 29 11 8 26 12 33 9 8 -3 20 -5 28 -5z
m-4924 -25 c8 -19 8 -28 -2 -40 -18 -22 -67 -19 -80 4 -13 25 -13 27 6 45 24
25 63 20 76 -9z m-2968 -8 c23 -38 -46 -56 -76 -20 -10 12 -9 18 7 29 25 18
55 14 69 -9z m714 -5 c3 -9 -2 -13 -14 -10 -9 1 -19 9 -22 16 -3 9 2 13 14 10
9 -1 19 -9 22 -16z m8290 -19 c-4 -22 -48 -31 -48 -10 0 19 10 27 32 27 13 0
18 -6 16 -17z m650 -37 c-4 -25 -40 -33 -57 -12 -10 12 -8 19 9 36 17 17 24
19 36 9 8 -7 14 -22 12 -33z m1507 14 c3 -5 1 -10 -4 -10 -6 0 -11 5 -11 10 0
6 2 10 4 10 3 0 8 -4 11 -10z m-13570 -54 c0 -26 -19 -31 -39 -11 -20 21 -11
37 17 33 14 -2 22 -10 22 -22z m1703 -33 c-3 -31 -34 -44 -44 -19 -9 24 3 46
26 46 17 0 21 -5 18 -27z m-434 -14 c-6 -11 -24 -2 -24 11 0 5 7 7 15 4 8 -4
12 -10 9 -15z m-1969 -19 c-3 -5 -10 -10 -16 -10 -5 0 -9 5 -9 10 0 6 7 10 16
10 8 0 12 -4 9 -10z m9905 -85 c10 -12 10 -21 1 -41 -6 -14 -11 -34 -11 -45 0
-16 -6 -20 -27 -17 -25 3 -28 8 -31 41 -5 60 38 98 68 62z m143 -17 c11 -9 15
-21 11 -36 -6 -22 -8 -22 -25 -6 -19 17 -26 54 -11 54 5 0 16 -6 25 -12z
m-9922 -20 c4 -6 10 -29 13 -51 6 -33 3 -45 -13 -60 -17 -17 -23 -18 -55 -7
-69 22 -84 105 -24 130 26 10 70 4 79 -12z m-206 -186 c22 -15 55 -66 55 -84
0 -10 -11 -24 -25 -30 -13 -6 -27 -19 -30 -28 -3 -10 -13 -20 -23 -23 -9 -3
-25 -8 -34 -12 -11 -4 -21 1 -32 18 -15 22 -15 28 10 83 38 84 51 97 79 76z
m-910 -110 c0 -18 -20 -15 -23 4 -3 10 1 15 10 12 7 -3 13 -10 13 -16z m794
-132 c8 -36 15 -92 15 -125 l1 -60 -35 0 c-31 0 -37 5 -57 43 -12 24 -25 68
-29 99 -6 51 -5 56 22 84 45 47 65 36 83 -41z m-289 1 c0 -30 -44 -96 -63 -96
-7 0 -13 18 -15 42 -3 35 2 48 22 68 30 30 56 24 56 -14z m138 -103 c-2 -13
-7 -23 -13 -23 -5 0 -11 10 -13 23 -2 15 2 22 13 22 11 0 15 -7 13 -22z m126
-229 c26 -21 34 -53 16 -64 -14 -9 -80 47 -80 68 0 23 31 22 64 -4z m-24 -198
c0 -41 -24 -69 -47 -55 -27 17 -28 59 -2 77 28 20 49 11 49 -22z m106 -326
c25 -38 12 -57 -38 -53 -35 2 -44 7 -46 25 -2 13 5 27 20 37 31 22 45 20 64
-9z m-286 -140 c15 -18 5 -64 -16 -72 -29 -11 -47 50 -22 75 16 16 23 15 38
-3z m-520 -348 c0 -36 -29 -140 -44 -154 -18 -18 -46 54 -46 120 0 44 28 77
65 77 23 0 25 -4 25 -43z m553 -164 c9 -50 -37 -76 -49 -28 -7 27 9 55 31 55
7 0 15 -12 18 -27z m-493 -54 c0 -5 -4 -9 -10 -9 -5 0 -10 7 -10 16 0 8 5 12
10 9 6 -3 10 -10 10 -16z m100 -298 c0 -97 -11 -122 -44 -98 -12 9 -19 32 -23
72 -4 55 -2 63 22 88 14 15 30 27 35 27 6 0 10 -39 10 -89z m448 3 c33 -23 29
-60 -9 -83 -18 -11 -38 -17 -45 -14 -17 6 -19 66 -4 94 13 23 28 24 58 3z
m-220 -366 c18 -18 15 -42 -8 -71 -28 -35 -50 -25 -50 22 0 37 14 61 35 61 6
0 16 -5 23 -12z m193 -178 c19 -11 24 -35 13 -64 -7 -19 -45 -21 -62 -4 -18
18 -15 55 6 67 21 13 20 13 43 1z m-387 -63 c26 -19 17 -51 -15 -55 -32 -4
-71 44 -48 59 20 12 43 11 63 -4z m446 -186 c0 -33 -16 -49 -32 -33 -14 14 -1
62 17 62 10 0 15 -10 15 -29z m-475 -391 c0 -23 -49 -20 -53 3 -3 15 2 18 25
15 17 -2 28 -9 28 -18z m-35 -367 c8 -52 2 -73 -35 -113 -13 -14 -36 -47 -52
-74 -16 -27 -33 -51 -38 -53 -12 -4 -45 73 -45 105 0 17 10 27 44 42 44 18 66
44 66 75 0 8 7 32 15 52 19 46 35 34 45 -34z m110 -22 c13 -24 13 -61 1 -61
-16 0 -41 30 -41 49 0 35 24 41 40 12z m38 -111 c4 -22 -19 -50 -40 -50 -12 0
-10 25 4 55 14 30 32 28 36 -5z m-318 -765 c0 -16 -6 -25 -15 -25 -9 0 -15 9
-15 25 0 16 6 25 15 25 9 0 15 -9 15 -25z m304 -251 c9 -22 -1 -34 -30 -34
-17 0 -24 6 -24 18 0 10 3 22 7 25 12 13 41 7 47 -9z m291 -76 c20 -9 25 -18
25 -49 0 -25 6 -41 16 -47 9 -5 15 -15 13 -21 -3 -8 -19 2 -42 24 -44 42 -61
71 -53 91 7 17 8 17 41 2z m-250 -113 c0 -15 -8 -21 -32 -23 -27 -3 -33 0 -33
16 0 26 10 33 40 30 17 -2 25 -9 25 -23z m129 -110 c40 -40 26 -100 -30 -133
-46 -26 -86 -23 -121 10 -30 28 -29 49 5 80 64 59 115 74 146 43z m-219 -475
c0 -20 -6 -26 -29 -28 -43 -5 -57 15 -26 38 33 26 55 21 55 -10z m-67 -172 c7
-7 12 -25 12 -40 0 -21 -5 -28 -20 -28 -28 0 -48 44 -30 65 15 18 22 19 38 3z
m22 -737 c14 -27 2 -53 -23 -49 -25 4 -42 30 -34 52 9 22 44 20 57 -3z m300
-1861 c0 -11 -7 -20 -15 -20 -15 0 -21 21 -8 33 12 13 23 7 23 -13z m-130
-250 c0 -27 -34 -44 -50 -25 -10 12 -10 18 0 30 18 22 50 19 50 -5z m-150
-162 c-1 -45 -31 -81 -52 -60 -13 13 14 72 34 72 10 0 18 -6 18 -12z m-103
-590 c-3 -8 -6 -5 -6 6 -1 11 2 17 5 13 3 -3 4 -12 1 -19z m338 -464 c0 -22
-5 -29 -20 -29 -23 0 -32 30 -14 51 18 22 34 11 34 -22z m-232 -325 c17 -26
-1 -88 -28 -101 -20 -9 -29 -8 -45 7 -33 30 -22 93 20 108 23 9 42 4 53 -14z
m325 -877 c3 -23 -12 -29 -36 -14 -17 12 -4 44 17 40 9 -2 17 -13 19 -26z
m-68 -427 c17 -20 8 -50 -14 -50 -23 0 -41 27 -33 49 8 20 31 21 47 1z m-206
-30 c14 -38 -37 -98 -62 -73 -19 19 -15 76 6 81 34 9 50 7 56 -8z m164 -1593
c2 -7 -3 -12 -12 -12 -9 0 -16 7 -16 16 0 17 22 14 28 -4z m-64 -118 c43 -16
-9 -144 -58 -144 -13 0 -31 9 -41 20 -23 25 -14 63 25 101 29 29 45 34 74 23z
m150 -636 c17 -28 -4 -53 -45 -53 -41 0 -50 24 -19 55 24 24 48 23 64 -2z m51
-208 c3 -5 -3 -10 -14 -10 -11 0 -23 5 -26 10 -3 6 3 10 14 10 11 0 23 -4 26
-10z m-495 -125 c0 -8 -7 -15 -15 -15 -8 0 -15 7 -15 15 0 8 7 15 15 15 8 0
15 -7 15 -15z m490 -260 c10 -13 10 -23 -5 -55 -25 -56 -43 -69 -61 -45 -21
29 -17 63 12 90 31 29 37 30 54 10z"/>
<path d="M13138 15588 c-46 -16 -31 -48 22 -48 18 0 40 27 40 49 0 13 -25 13
-62 -1z"/>
<path d="M3010 14685 c-14 -8 -36 -15 -50 -15 -14 0 -36 -7 -50 -15 -14 -8
-33 -14 -42 -15 -26 0 -72 -20 -64 -27 3 -4 32 -7 64 -8 32 -1 63 -5 69 -8 17
-11 5 -40 -37 -85 -44 -48 -74 -54 -126 -21 -44 27 -78 22 -82 -11 -2 -18 4
-28 20 -35 35 -15 35 -68 0 -135 -28 -54 -29 -55 -70 -52 -33 2 -43 -2 -52
-18 -19 -35 -23 -141 -11 -287 11 -124 10 -146 -3 -172 -22 -41 -20 -88 4
-118 26 -33 26 -75 0 -98 -25 -23 -37 -80 -20 -100 10 -12 10 -21 1 -41 -17
-39 -13 -63 15 -89 27 -25 41 -64 54 -157 4 -31 10 -61 14 -66 3 -6 -6 -25
-21 -42 -22 -26 -24 -35 -15 -49 32 -43 36 -61 19 -78 -15 -15 -18 -15 -35 0
-25 23 -52 22 -52 -2 0 -10 -6 -24 -14 -30 -9 -8 -15 -32 -15 -67 0 -40 -5
-61 -21 -81 -16 -21 -20 -39 -19 -77 2 -28 -1 -66 -5 -84 -6 -27 -3 -39 19
-67 18 -24 34 -35 52 -35 17 0 40 -15 69 -44 46 -45 49 -52 35 -75 -13 -20
-49 -8 -104 34 -98 75 -135 24 -47 -66 28 -28 50 -53 50 -56 0 -3 -8 -18 -17
-34 -16 -26 -16 -31 -3 -39 8 -5 25 -10 36 -10 34 0 46 -23 39 -74 -8 -53 -12
-57 -87 -80 -42 -12 -58 -22 -58 -35 0 -10 -3 -21 -7 -25 -4 -4 -15 -28 -25
-53 -12 -33 -14 -51 -7 -65 15 -28 3 -54 -45 -93 -32 -26 -44 -43 -44 -63 0
-40 6 -43 41 -22 37 23 74 25 114 8 30 -14 43 -26 43 -45 0 -17 -39 -26 -55
-13 -17 14 -17 18 -19 -84 -1 -63 2 -80 14 -83 8 -3 26 -18 39 -34 21 -27 23
-41 25 -132 1 -56 5 -108 9 -114 5 -8 32 -13 73 -13 67 0 104 -20 104 -55 0
-23 -44 -63 -77 -70 -55 -13 -54 -12 -52 -77 1 -35 -6 -90 -14 -124 -9 -33
-14 -69 -12 -80 17 -83 17 -82 -25 -89 -21 -4 -46 -15 -55 -25 -26 -29 -13
-121 30 -209 l35 -71 40 2 c22 1 43 -2 46 -5 4 -4 3 -26 -2 -49 -9 -43 -9 -43
-54 -43 l-45 0 -3 -43 c-2 -27 3 -53 12 -67 20 -30 20 -49 2 -64 -8 -7 -17
-24 -21 -39 -4 -15 -14 -35 -23 -45 -13 -15 -14 -23 -4 -51 20 -54 15 -83 -18
-113 -16 -14 -30 -31 -30 -37 0 -6 -9 -17 -20 -24 -28 -17 -27 -75 1 -101 18
-16 20 -26 14 -61 -7 -42 -7 -43 55 -102 34 -32 85 -70 112 -84 89 -45 42 -85
-52 -45 -86 37 -90 34 -105 -69 -9 -59 -8 -66 5 -125 10 -45 9 -51 -10 -67
-24 -19 -25 -27 -5 -64 17 -32 13 -180 -5 -198 -20 -20 -11 -79 17 -108 26
-27 26 -30 13 -61 -7 -17 -13 -47 -13 -64 0 -32 -8 -38 -43 -34 -34 4 -43
-106 -20 -244 11 -61 11 -101 4 -170 -9 -76 -8 -104 7 -177 10 -52 15 -105 12
-130 -7 -51 20 -117 58 -142 32 -21 32 -49 -1 -79 -23 -22 -25 -31 -26 -108 0
-46 5 -102 11 -124 13 -51 9 -182 -8 -214 -13 -24 -9 -73 11 -123 8 -22 7 -33
-7 -54 -9 -14 -23 -47 -31 -73 -15 -52 -13 -73 25 -215 12 -44 21 -105 21
-137 0 -53 -3 -60 -30 -81 -23 -16 -30 -30 -30 -54 0 -18 5 -36 10 -39 6 -3
10 -13 10 -21 0 -8 12 -40 26 -70 26 -55 27 -73 9 -159 -5 -23 -2 -35 14 -49
12 -11 21 -30 21 -43 0 -19 -9 -28 -40 -40 -35 -14 -40 -20 -39 -47 0 -17 -2
-58 -6 -92 -6 -50 -4 -69 14 -109 11 -26 21 -51 21 -55 0 -4 18 -38 39 -75 38
-65 40 -71 34 -134 -7 -83 -30 -137 -83 -195 -33 -35 -39 -49 -32 -63 5 -10
12 -41 16 -70 4 -28 13 -68 21 -87 14 -34 24 -40 80 -48 11 -2 26 -16 34 -32
20 -42 5 -60 -55 -66 -44 -5 -51 -8 -66 -41 -13 -28 -15 -47 -8 -95 9 -61 73
-258 91 -280 6 -7 9 -25 7 -39 -2 -22 -11 -30 -53 -43 -64 -22 -73 -52 -23
-78 39 -20 49 -33 42 -56 -2 -9 1 -37 7 -63 11 -43 10 -49 -11 -77 -19 -26
-23 -47 -27 -127 -2 -53 -11 -113 -19 -134 -8 -20 -14 -60 -14 -87 0 -40 4
-50 20 -55 27 -8 25 -21 -5 -41 -15 -10 -29 -33 -36 -58 -6 -22 -17 -55 -26
-73 -13 -27 -13 -36 0 -75 12 -35 23 -47 61 -66 25 -13 46 -28 46 -33 0 -17
-22 -53 -40 -66 -9 -7 -25 -38 -35 -70 -10 -32 -29 -69 -42 -83 -19 -19 -23
-31 -19 -53 3 -16 6 -36 6 -43 0 -7 20 -33 45 -57 38 -36 47 -52 54 -95 5 -32
17 -62 31 -77 28 -30 19 -45 -28 -46 -91 -2 -124 -42 -115 -135 5 -49 3 -58
-19 -82 -28 -29 -37 -52 -44 -108 -2 -20 -11 -49 -20 -66 -18 -35 -13 -64 22
-119 14 -22 29 -51 34 -65 6 -14 26 -32 48 -42 51 -23 63 -36 102 -110 18 -34
36 -65 41 -68 18 -11 8 -37 -35 -94 -24 -31 -47 -66 -50 -78 -4 -13 -21 -23
-50 -31 -34 -8 -57 -25 -103 -75 -50 -53 -61 -71 -66 -110 -7 -46 3 -89 22
-100 18 -11 51 -97 51 -132 0 -18 5 -36 10 -39 20 -13 50 -85 50 -123 0 -21 4
-42 9 -47 5 -6 12 -41 14 -80 8 -116 33 -241 55 -272 12 -18 37 -33 66 -42 40
-12 51 -11 87 3 48 19 99 13 125 -15 9 -10 25 -19 34 -19 25 0 58 -29 78 -70
16 -32 20 -35 57 -32 43 4 67 20 93 64 13 23 24 28 53 28 31 0 38 -4 49 -30 7
-17 22 -37 34 -45 29 -21 173 -20 238 2 44 14 57 14 92 3 23 -7 65 -12 93 -11
29 1 70 -6 90 -14 21 -9 52 -15 68 -15 98 6 125 1 137 -25 14 -31 60 -34 103
-5 35 23 67 25 98 6 27 -16 290 -46 412 -46 104 0 205 30 205 61 0 37 62 43
109 10 31 -23 137 -55 150 -46 6 3 18 1 29 -6 14 -9 28 -6 69 16 43 22 59 25
96 20 56 -9 87 1 87 25 0 32 42 66 105 85 78 24 115 21 140 -11 20 -24 23 -24
185 -28 170 -3 186 -1 230 39 17 16 48 27 97 35 80 13 108 8 123 -21 20 -37
58 -47 140 -37 61 8 80 8 105 -5 53 -27 78 -28 101 -6 16 15 40 22 97 26 l74
6 24 -32 c12 -17 30 -31 38 -31 9 0 25 -7 35 -15 11 -8 35 -15 53 -15 18 0 59
-9 91 -21 34 -12 93 -23 147 -26 50 -3 113 -13 140 -23 28 -10 82 -21 120 -24
82 -8 93 -2 151 84 34 50 38 63 44 145 5 63 15 107 32 145 20 45 25 72 26 145
1 50 7 112 13 139 13 56 6 139 -15 170 -17 28 -40 168 -31 197 10 29 -11 72
-81 169 -34 47 -64 96 -68 108 -4 12 -24 36 -45 54 -53 45 -83 103 -70 135 5
13 9 38 9 54 0 24 -6 32 -29 40 -44 15 -52 52 -48 223 4 164 3 160 74 171 36
5 43 10 43 28 0 12 -9 35 -20 52 -15 22 -18 39 -13 68 5 35 2 41 -33 74 -21
19 -56 44 -76 54 -42 21 -44 26 -26 64 8 19 8 31 -1 51 -6 15 -9 34 -6 44 6
19 91 60 125 60 33 0 63 19 52 33 -5 7 -12 47 -16 91 -5 66 -10 82 -30 101
-35 33 -62 92 -70 155 -4 30 -15 63 -23 73 -18 19 -10 33 22 39 14 2 21 -3 23
-19 2 -15 13 -25 28 -29 35 -9 41 2 16 29 -12 13 -22 33 -22 44 0 11 -9 32
-21 46 -11 15 -23 44 -26 64 -3 21 -17 51 -30 66 -12 16 -23 35 -23 42 0 16
45 53 74 61 16 4 28 25 49 85 15 44 25 84 22 90 -4 5 4 39 16 75 20 59 21 72
11 126 -10 56 -10 63 10 90 22 31 48 146 48 211 0 21 -8 50 -17 64 -15 23 -18
49 -16 172 l2 144 -39 40 -40 39 -33 -21 c-42 -26 -77 -27 -108 -3 -13 10 -45
31 -72 46 -43 25 -54 46 -23 46 7 0 27 14 44 31 68 67 28 130 -73 115 -42 -7
-46 -5 -57 20 -11 24 -10 29 25 60 50 46 84 45 115 -1 12 -19 30 -35 40 -35
28 0 114 29 131 44 9 8 36 25 61 38 40 20 45 28 48 61 4 44 -4 45 -67 16 -33
-14 -68 -20 -131 -21 -48 -1 -92 2 -98 6 -22 13 -12 44 23 75 43 38 71 45 139
38 69 -7 101 8 102 48 2 76 5 94 17 107 7 7 23 33 35 57 13 24 38 64 57 88 45
58 52 99 32 182 -9 36 -19 91 -23 121 l-6 56 118 -2 c78 -1 136 3 169 12 63
18 147 10 171 -17 9 -10 23 -19 30 -19 7 0 34 -7 60 -16 67 -23 108 -13 128
31 17 36 60 65 95 65 10 0 38 16 61 35 23 19 47 35 53 35 35 -1 59 -17 82 -56
20 -34 32 -44 52 -44 14 0 50 -11 78 -25 29 -13 79 -28 111 -31 33 -4 71 -15
86 -25 43 -31 98 -23 98 15 0 44 11 48 126 44 l109 -3 3 43 c3 36 6 42 26 42
13 0 44 -9 69 -20 31 -14 66 -20 104 -20 32 1 67 0 78 -2 29 -4 33 44 5 72
-16 16 -28 19 -54 14 -58 -10 -99 51 -60 90 8 9 25 16 36 16 25 0 145 -65 150
-81 2 -6 25 -13 50 -16 39 -5 50 -2 71 18 78 77 97 81 141 33 30 -32 37 -36
50 -25 21 18 99 -3 127 -32 15 -17 34 -21 96 -23 64 -2 88 -8 136 -33 48 -25
62 -28 89 -20 67 19 169 10 243 -21 11 -5 42 -11 69 -14 27 -3 61 -14 75 -24
66 -44 107 -51 165 -27 41 17 54 16 188 -27 101 -32 121 -32 174 1 22 14 33
30 38 56 9 45 -3 61 -55 77 -46 13 -50 23 -11 31 28 6 39 15 93 80 l32 38 -6
100 c-5 92 -7 102 -35 133 -16 19 -37 47 -47 63 -21 35 -74 73 -102 73 -23 0
-82 22 -127 47 -37 20 -118 20 -178 -1 -26 -8 -73 -20 -103 -24 -39 -7 -61
-16 -71 -31 -18 -25 -65 -51 -93 -51 -33 0 -51 -27 -51 -80 0 -45 -3 -50 -42
-79 -23 -17 -52 -31 -64 -31 -28 0 -61 41 -70 87 -9 48 -33 55 -201 61 -119 4
-145 2 -164 -12 -13 -9 -38 -16 -55 -16 -17 0 -42 -8 -55 -18 -22 -17 -33 -18
-112 -9 -85 9 -89 11 -99 38 -12 35 -40 41 -162 36 -102 -5 -109 -11 -102 -79
8 -79 -9 -86 -146 -62 -56 9 -88 -2 -100 -36 -15 -45 -46 -40 -54 9 -3 21 -17
51 -29 67 l-23 29 -36 -19 -35 -19 -37 29 c-76 61 -71 60 -170 29 -78 -24 -98
-26 -159 -20 -38 4 -96 9 -128 10 -38 2 -70 11 -95 26 -26 16 -61 25 -117 31
-223 21 -235 21 -301 3 -70 -19 -101 -17 -184 13 -49 17 -59 18 -89 6 -46 -19
-63 -18 -150 12 -81 28 -91 36 -91 73 0 27 -33 86 -67 118 -34 33 -40 70 -14
97 13 14 19 29 15 39 -16 43 41 147 81 147 14 0 10 99 -6 141 -6 14 -11 70
-13 125 -3 109 -26 198 -56 214 -17 9 -50 87 -50 118 0 8 -10 26 -23 41 -13
16 -29 54 -36 87 -25 112 -23 109 -70 112 -23 2 -48 -2 -55 -7 -10 -8 -17 -6
-30 8 -24 27 -12 153 19 189 22 25 24 26 63 13 22 -8 48 -11 56 -8 18 7 22 58
6 87 -7 14 -3 26 20 55 45 57 38 98 -18 107 -31 4 -29 22 3 26 21 3 25 9 27
40 3 63 0 78 -23 132 -15 34 -32 56 -48 64 -71 31 -121 68 -121 91 0 30 16 41
69 50 43 7 101 49 101 74 0 5 -22 29 -49 51 -51 43 -81 103 -81 161 0 34 24
91 45 109 9 7 23 27 31 43 16 30 18 31 97 11 26 -6 27 -5 27 31 0 29 -7 44
-31 66 -26 24 -32 39 -34 77 -4 74 13 133 47 163 27 23 29 29 22 60 -5 19 -5
86 -1 149 10 148 12 258 6 345 -3 53 0 77 13 100 46 83 64 143 80 270 21 176
21 207 -1 258 -14 31 -21 70 -21 108 0 66 -16 84 -49 55 -10 -9 -26 -16 -36
-16 -15 0 -17 5 -11 33 3 17 10 50 14 72 5 29 16 45 42 63 22 15 34 30 31 40
-8 41 0 146 13 161 27 30 30 87 7 125 -12 19 -28 37 -36 40 -24 9 -17 29 18
51 57 36 54 136 -8 255 -13 25 -26 65 -29 89 -4 24 -14 57 -22 74 -12 22 -15
46 -11 83 4 40 2 56 -10 65 -8 7 -23 29 -33 49 -10 20 -31 45 -45 54 l-26 17
25 24 c14 13 26 33 26 44 0 11 16 40 35 66 32 42 38 65 15 65 -4 0 -23 -15
-41 -33 -26 -26 -46 -36 -84 -41 -27 -4 -65 -12 -82 -17 -18 -6 -42 -7 -54 -4
-25 8 -63 86 -81 164 -11 51 -11 54 12 71 48 36 95 34 110 -6 5 -13 21 -31 35
-40 22 -14 32 -15 66 -5 33 10 44 20 60 54 10 23 19 54 19 68 0 40 -35 78 -81
85 -101 16 -57 99 53 99 25 0 45 -8 64 -25 24 -23 26 -29 20 -88 -5 -59 -4
-63 19 -74 20 -9 29 -7 53 13 16 13 43 31 59 40 24 13 35 33 62 109 18 51 35
115 38 142 4 34 12 53 25 61 37 23 60 73 53 119 -11 83 41 159 121 174 24 4
33 12 37 32 3 15 11 49 17 75 13 55 13 54 111 27 60 -17 95 -7 120 35 27 45
46 50 105 25 62 -27 90 -20 109 27 15 36 15 36 65 30 27 -3 62 -13 78 -21 18
-9 63 -16 117 -17 81 -3 89 -1 106 20 11 13 19 36 19 52 0 39 22 46 57 19 17
-12 58 -25 98 -31 81 -13 138 -39 161 -74 14 -21 14 -30 4 -55 -11 -27 -11
-32 6 -45 31 -23 87 -27 308 -25 116 1 226 -1 244 -5 48 -11 74 15 60 58 -6
18 -15 37 -20 44 -16 21 1 33 47 33 32 0 51 -7 73 -25 38 -32 116 -65 152 -65
18 0 42 -11 62 -28 55 -47 95 -62 170 -62 98 0 137 25 138 86 0 49 38 156 65
184 29 31 41 80 26 108 -10 18 -3 26 55 74 142 114 162 122 214 84 59 -43 98
-58 120 -46 17 9 20 21 20 70 0 54 2 60 26 72 15 7 40 37 56 68 16 30 36 62
44 71 50 56 4 199 -64 199 -16 0 -39 15 -66 44 -51 55 -92 76 -148 76 -27 1
-57 9 -81 24 -35 22 -41 22 -87 10 -63 -16 -70 -21 -70 -45 0 -15 7 -19 33
-19 61 0 95 -43 65 -82 -36 -45 -98 -18 -98 42 0 34 -9 36 -50 15 -37 -19 -46
-53 -26 -93 16 -31 22 -92 9 -92 -4 0 -20 4 -37 9 -17 5 -50 15 -73 21 -36 9
-44 16 -51 43 -5 19 -18 36 -33 43 -78 37 -101 43 -174 47 -44 3 -107 15 -139
26 -84 30 -118 27 -161 -10 l-36 -32 -72 10 c-68 10 -73 9 -100 -13 -16 -13
-34 -24 -41 -24 -7 0 -23 -12 -37 -26 -27 -28 -26 -29 40 -66 41 -22 39 -43
-6 -84 -43 -40 -51 -41 -88 -12 -27 21 -29 21 -57 5 -47 -27 -64 -22 -97 33
-28 46 -34 50 -70 50 -23 0 -48 8 -64 20 -28 22 -67 26 -98 10 -26 -14 -121
14 -156 46 -15 13 -36 26 -47 29 -12 2 -32 6 -46 8 -14 3 -49 14 -78 25 l-54
21 -24 -25 c-14 -13 -33 -24 -43 -24 -21 0 -52 32 -74 76 -12 24 -29 35 -74
51 -97 33 -215 20 -494 -52 -30 -8 -73 -15 -95 -15 -22 0 -57 -9 -79 -20 -35
-18 -51 -19 -169 -13 -143 6 -187 -2 -264 -51 -42 -26 -87 -75 -97 -104 -5
-19 -44 -42 -70 -42 -14 0 -45 -26 -45 -38 0 -4 19 -7 42 -7 l43 0 3 -61 c2
-47 -1 -64 -14 -75 -15 -12 -21 -9 -55 29 l-38 44 -16 -39 c-9 -21 -19 -51
-21 -68 -10 -56 -48 -150 -64 -160 -6 -3 -10 -30 -10 -59 0 -36 -5 -58 -16
-67 -19 -16 -44 -63 -44 -84 0 -9 -9 -28 -21 -44 -19 -25 -20 -33 -10 -86 6
-32 11 -75 11 -94 0 -25 11 -51 35 -85 29 -41 35 -58 35 -102 0 -30 8 -70 19
-95 23 -51 16 -66 -32 -71 l-32 -3 -1 -90 c-2 -85 0 -92 26 -122 16 -17 31
-41 35 -52 10 -34 -13 -134 -35 -151 -14 -10 -23 -32 -26 -63 l-6 -48 53 3 54
3 3 -72 c3 -64 0 -74 -18 -85 -14 -9 -20 -23 -20 -49 0 -40 -13 -51 -45 -38
-11 4 -33 8 -49 8 l-29 1 7 -71 c9 -87 11 -92 39 -104 32 -14 33 -50 3 -85
-14 -17 -28 -47 -32 -68 -4 -20 -13 -46 -20 -57 -8 -11 -14 -40 -14 -66 0 -26
-7 -63 -15 -82 -12 -29 -14 -71 -10 -219 3 -101 7 -192 9 -203 6 -38 18 -80
36 -130 22 -64 34 -129 22 -121 -5 3 -20 -6 -32 -19 -23 -25 -24 -31 -25 -218
-1 -184 -2 -195 -24 -225 -21 -30 -22 -43 -24 -191 -1 -136 2 -165 18 -201 14
-31 26 -43 48 -47 16 -3 31 -12 34 -19 10 -27 -21 -106 -52 -131 -39 -33 -55
-63 -45 -82 9 -18 43 -130 62 -206 7 -27 13 -52 15 -54 1 -2 21 13 45 33 23
20 47 35 52 33 6 -2 12 -29 14 -59 3 -49 0 -58 -20 -72 -12 -9 -35 -16 -51
-16 l-29 0 7 -56 c9 -76 33 -155 54 -179 34 -38 59 -90 66 -135 4 -25 18 -64
32 -88 27 -47 27 -79 1 -96 -23 -14 -31 -4 -37 47 -5 36 -10 42 -33 45 -20 2
-28 -2 -34 -20 -14 -45 -8 -241 10 -311 20 -74 15 -90 -29 -101 -13 -3 -26
-14 -29 -24 -5 -17 -8 -98 -5 -157 1 -16 -1 -57 -5 -90 -8 -59 -7 -61 33 -114
58 -77 53 -101 -20 -101 -28 0 -29 -2 -29 -46 0 -35 7 -57 30 -91 36 -53 37
-59 6 -67 -19 -5 -25 -14 -29 -48 -2 -27 0 -47 8 -53 7 -5 19 -25 29 -42 23
-46 57 -45 85 2 24 41 43 45 59 10 16 -35 16 -37 -18 -80 -17 -22 -30 -50 -30
-66 0 -24 7 -31 53 -52 29 -13 69 -27 90 -31 20 -4 39 -11 42 -17 4 -5 -9 -28
-29 -49 -20 -22 -36 -43 -36 -46 0 -3 9 -17 20 -31 11 -14 20 -34 20 -45 0
-27 17 -57 52 -95 28 -29 30 -36 25 -85 -10 -90 -26 -152 -44 -165 -21 -16
-70 -17 -112 -2 -28 10 -31 15 -32 52 0 62 -20 111 -45 115 -30 4 -45 -34 -31
-85 12 -47 5 -73 -23 -80 -11 -3 -20 -6 -20 -8 0 -24 32 -68 71 -99 27 -22 49
-45 49 -51 0 -7 7 -18 15 -25 21 -17 19 -80 -5 -135 -11 -26 -20 -55 -20 -66
0 -23 35 -95 58 -122 13 -15 14 -23 4 -51 -18 -48 -15 -60 19 -90 16 -15 29
-35 27 -44 -2 -9 -30 -30 -63 -47 -75 -39 -82 -65 -35 -124 35 -43 33 -61 -8
-61 -49 0 -54 -11 -64 -130 -8 -94 -7 -117 6 -145 19 -40 30 -49 81 -66 51
-17 65 -34 65 -81 0 -43 -27 -78 -60 -78 -12 0 -32 -12 -45 -27 -44 -50 -27
-122 43 -185 44 -40 52 -68 29 -103 -7 -11 -23 -50 -35 -87 -18 -55 -20 -81
-15 -146 5 -72 8 -80 34 -98 35 -23 44 -46 30 -73 -15 -26 -14 -64 1 -79 20
-20 68 -14 101 14 26 22 38 25 74 20 57 -7 130 -43 136 -66 7 -26 -3 -37 -43
-47 -25 -6 -39 -18 -48 -39 -23 -52 -29 -59 -50 -62 -11 -2 -46 11 -78 27 -60
33 -102 39 -122 19 -17 -17 -15 -68 3 -113 19 -43 10 -60 -36 -70 -29 -7 -69
-40 -69 -58 0 -5 27 -35 60 -67 33 -32 60 -62 60 -67 0 -5 -19 -17 -42 -28
-49 -23 -58 -40 -26 -48 13 -4 32 -22 43 -42 25 -47 70 -85 101 -85 31 0 54
44 54 103 0 54 10 63 77 70 41 5 57 2 74 -12 18 -14 20 -21 10 -39 -6 -11 -11
-43 -11 -71 0 -28 -3 -51 -7 -51 -79 -5 -142 -12 -158 -19 -85 -36 -115 -53
-115 -64 0 -7 -11 -24 -25 -37 -15 -14 -25 -33 -23 -45 3 -17 9 -20 45 -17 34
2 43 -1 48 -17 10 -32 34 -44 85 -42 55 2 65 -7 45 -36 -12 -17 -28 -21 -84
-25 -68 -3 -71 -5 -117 -51 l-46 -47 19 -48 c21 -52 54 -70 125 -71 67 -1 86
-49 27 -70 -31 -11 -40 -46 -17 -69 17 -17 9 -21 -77 -32 -75 -10 -78 -11
-119 -57 -22 -26 -40 -54 -38 -63 2 -8 6 -28 9 -45 2 -16 17 -48 33 -70 16
-22 43 -64 60 -94 28 -48 30 -56 19 -83 -6 -16 -21 -35 -32 -43 -20 -14 -20
-15 -1 -51 10 -20 35 -49 54 -65 29 -24 33 -32 24 -47 -13 -21 -75 -28 -105
-12 -27 15 -41 -3 -32 -40 7 -31 30 -50 59 -50 27 0 37 -22 24 -54 -5 -14 -5
-40 1 -65 12 -53 4 -67 -25 -47 -13 8 -39 18 -58 21 -31 6 -36 4 -41 -17 -11
-38 -8 -47 23 -75 25 -21 30 -34 30 -69 0 -33 -5 -46 -20 -54 -24 -13 -28 -71
-5 -90 27 -22 49 -7 61 40 9 38 15 46 37 48 35 4 85 -23 92 -51 3 -12 -1 -39
-10 -60 -16 -39 -11 -61 19 -86 8 -7 18 -27 22 -44 4 -18 15 -48 25 -67 11
-19 19 -38 19 -42 0 -14 -32 -38 -51 -38 -22 0 -88 65 -144 144 -45 63 -62 73
-83 52 -34 -34 -19 -126 46 -289 20 -50 8 -71 -44 -75 -21 -2 -46 -9 -54 -16
-8 -7 -36 -25 -62 -40 -58 -34 -88 -89 -88 -163 0 -49 -2 -54 -44 -87 -50 -42
-62 -43 -110 -15 -42 25 -64 17 -95 -36 -19 -32 -24 -35 -69 -35 -26 0 -52 4
-58 8 -5 5 -27 14 -50 20 -23 7 -58 23 -78 37 -69 47 -106 30 -106 -51 0 -41
-5 -57 -25 -78 -36 -39 -65 -32 -93 24 -16 31 -28 44 -40 42 -9 -2 -37 -6 -62
-9 -33 -4 -57 -15 -90 -43 -25 -20 -60 -41 -77 -44 -30 -7 -32 -6 -42 31 -29
107 -23 145 36 222 40 54 46 122 13 164 -11 14 -20 30 -20 35 0 17 -71 91
-150 157 -55 45 -83 76 -100 114 -14 28 -30 51 -36 51 -6 0 -19 9 -29 20 -10
11 -22 20 -26 20 -11 0 -99 62 -99 70 0 3 16 22 36 41 64 62 74 102 48 196 -5
17 1 30 25 52 22 21 33 43 40 82 24 132 33 165 50 179 28 23 40 136 41 374 0
172 -2 213 -15 232 -31 47 -35 302 -11 566 5 51 4 78 -3 83 -6 3 -11 38 -11
81 0 42 -5 84 -10 95 -6 10 -12 52 -14 93 -4 67 -20 116 -38 116 -19 0 -5 60
22 97 33 45 33 56 3 141 -20 53 -38 64 -97 56 -42 -6 -45 -5 -52 20 -7 29 2
90 18 119 9 18 11 18 33 -3 16 -15 33 -20 56 -18 31 3 34 6 31 33 -4 41 -26
86 -56 114 -19 18 -27 38 -32 83 -4 38 -16 72 -31 95 -18 26 -23 44 -18 62 19
76 18 82 -10 111 -26 27 -27 30 -10 36 10 4 45 0 79 -9 43 -11 64 -13 73 -5
21 17 16 102 -9 150 -14 27 -22 57 -20 85 1 37 -3 45 -35 72 -42 35 -40 61 6
61 16 0 33 5 37 12 17 27 22 98 12 168 -13 91 0 147 42 192 22 23 28 37 24 57
-3 14 -11 66 -17 116 -11 81 -15 91 -38 102 -41 20 -63 51 -75 106 -7 29 -20
78 -29 109 l-18 57 32 60 c26 51 31 71 31 133 0 40 9 118 21 173 14 69 18 118
14 157 -5 46 -2 66 14 99 18 37 19 49 10 133 -6 50 -12 134 -13 186 -1 52 -6
102 -11 110 -12 18 -24 159 -26 295 0 73 4 108 15 130 26 49 20 86 -19 129
-43 47 -44 72 -5 121 34 43 36 54 15 96 -18 33 -10 56 31 98 28 28 32 86 9
117 -17 22 -19 85 -5 167 6 40 6 65 -2 82 -9 21 -7 27 18 49 16 14 39 29 50
32 13 3 24 17 28 32 3 15 8 36 11 47 4 14 -5 32 -29 59 -20 21 -36 42 -36 47
0 5 -6 9 -14 9 -14 0 -76 64 -76 79 0 4 7 31 16 60 14 49 14 54 -1 71 -9 10
-32 26 -51 35 -42 20 -36 35 16 35 80 0 97 35 30 65 -33 15 -42 26 -55 66 -9
27 -21 51 -26 54 -12 8 -11 62 1 86 9 15 22 19 64 19 29 0 55 3 59 6 15 16
-23 68 -69 93 l-49 26 0 85 c0 99 16 145 56 166 38 19 46 37 53 118 4 55 2 77
-14 112 -28 60 -26 100 6 129 15 14 30 25 34 25 4 0 10 27 14 60 6 54 10 62
34 70 47 17 57 26 58 56 1 16 8 68 15 115 l12 86 -29 37 c-16 20 -33 36 -38
36 -4 0 -21 11 -38 25 -16 14 -36 25 -43 25 -7 0 -34 24 -60 54 -45 53 -46 55
-39 105 6 47 5 51 -26 79 -28 26 -33 39 -42 108 -11 85 -5 181 11 197 16 16
41 -11 68 -71 19 -44 27 -53 46 -50 17 2 23 10 25 38 2 29 -6 46 -48 100 -31
39 -50 73 -48 85 4 29 53 32 100 5 58 -32 63 -26 63 77 0 73 4 95 18 110 20
23 23 90 4 124 -7 13 -29 50 -50 81 -20 31 -37 63 -37 69 0 7 20 32 44 55 53
51 66 95 46 164 -7 25 -12 56 -11 70 0 14 3 106 5 205 1 99 6 187 10 197 4 9
-1 32 -13 57 -26 49 -26 62 -2 92 22 29 40 84 41 124 2 139 -11 389 -23 432
-11 42 -12 56 -2 70 7 10 16 43 20 73 4 30 14 67 21 82 8 15 14 37 14 50 0 13
7 48 15 78 34 118 65 244 65 260 0 11 -19 25 -56 40 -31 14 -63 35 -71 47 -9
13 -20 23 -26 23 -6 0 -18 6 -26 13 -9 8 -44 22 -79 32 -35 10 -65 22 -68 27
-12 18 -96 8 -140 -18 -42 -25 -46 -25 -95 -13 -48 13 -52 12 -67 -8 -10 -12
-29 -25 -45 -29 -39 -9 -51 -37 -32 -73 19 -37 19 -59 0 -104 -11 -27 -13 -47
-6 -84 5 -27 6 -68 1 -93 -6 -33 -4 -54 7 -80 9 -19 21 -57 27 -84 17 -71 37
-79 81 -36 44 42 57 31 53 -45 l-3 -50 -43 3 c-40 2 -44 1 -57 -32 -8 -20 -15
-48 -15 -65 0 -20 -8 -34 -25 -45 -14 -9 -25 -25 -25 -36 0 -11 -8 -28 -19
-39 -58 -58 -67 -146 -21 -209 21 -29 30 -53 30 -81 0 -21 9 -59 20 -84 19
-43 19 -46 3 -90 l-17 -46 27 -25 c37 -34 37 -96 1 -149 -21 -32 -24 -43 -16
-65 22 -59 23 -94 1 -129 -16 -25 -19 -42 -15 -66 23 -110 18 -130 -35 -142
-35 -8 -36 -21 -9 -98 25 -70 25 -74 0 -130 -15 -33 -20 -71 -22 -149 -3 -118
4 -135 55 -140 29 -3 32 -6 32 -38 0 -33 -2 -35 -35 -38 -19 -2 -39 -7 -44
-12 -4 -4 -5 -40 -1 -79 6 -57 13 -78 36 -107 16 -20 29 -47 29 -60 0 -22 -4
-24 -46 -24 -67 0 -86 -13 -79 -57 3 -19 15 -44 28 -54 20 -17 20 -20 6 -29
-9 -5 -22 -23 -29 -40 -11 -26 -10 -33 5 -50 10 -11 24 -20 32 -20 7 0 13 -11
13 -25 0 -18 -11 -33 -40 -53 -63 -43 -51 -97 32 -137 48 -23 55 -36 33 -58
-10 -11 -26 -14 -50 -10 -43 7 -79 -14 -93 -56 -13 -38 4 -56 40 -42 34 13 58
-3 58 -39 0 -34 -29 -54 -68 -47 -58 11 -67 -20 -28 -105 12 -29 33 -85 45
-124 12 -40 28 -78 37 -85 38 -32 38 -49 -3 -91 -46 -47 -61 -106 -72 -278 -5
-63 -11 -124 -15 -136 -14 -40 7 -88 47 -107 50 -24 51 -59 2 -88 -32 -19 -35
-25 -35 -65 0 -25 9 -60 20 -81 15 -28 20 -57 20 -111 0 -74 13 -118 31 -106
15 9 59 -24 59 -44 0 -27 -20 -42 -57 -42 -28 0 -35 -6 -53 -40 -25 -49 -25
-67 1 -138 11 -31 29 -88 39 -126 10 -38 25 -75 32 -82 8 -8 41 -16 74 -18 72
-6 170 -40 179 -64 10 -27 -30 -52 -84 -52 -43 0 -71 -12 -71 -31 0 -4 11 -20
24 -36 l25 -29 -30 -28 c-22 -21 -29 -37 -29 -66 0 -21 6 -43 15 -50 20 -17
19 -49 -1 -57 -10 -3 -31 -1 -48 7 -17 7 -43 15 -58 17 -26 5 -28 3 -28 -31 0
-20 10 -56 21 -78 17 -34 20 -53 16 -100 -5 -56 -4 -58 21 -64 49 -10 53 -14
50 -35 -5 -34 -32 -46 -70 -31 -25 9 -34 9 -40 -1 -15 -23 -9 -66 12 -77 28
-15 53 -68 47 -99 -3 -14 -1 -40 5 -57 9 -27 7 -39 -12 -79 l-23 -48 22 -16
c54 -37 71 -60 71 -95 0 -31 -20 -66 -38 -66 -4 0 -18 7 -30 16 -54 37 -61 -4
-20 -118 19 -53 19 -60 5 -101 -8 -24 -13 -56 -10 -70 4 -19 0 -27 -16 -32
-27 -8 -35 -42 -27 -116 6 -48 3 -68 -14 -105 -25 -59 -25 -99 0 -147 11 -20
20 -46 20 -56 0 -24 45 -61 75 -61 18 0 24 -7 29 -37 5 -33 3 -41 -21 -60 -83
-66 -88 -80 -49 -141 24 -35 25 -43 22 -175 -3 -115 -6 -140 -21 -157 -14 -16
-16 -30 -11 -82 7 -64 -7 -191 -25 -239 -6 -14 -23 -36 -40 -48 -16 -12 -29
-27 -29 -34 1 -7 20 -26 44 -44 27 -20 46 -43 52 -65 9 -31 12 -33 59 -36 28
-2 55 -9 60 -16 6 -7 18 -15 28 -19 9 -3 17 -15 17 -25 0 -33 -16 -39 -79 -28
-56 9 -60 8 -97 -20 -21 -16 -42 -33 -46 -39 -12 -16 -9 -46 5 -44 39 5 70 -4
99 -30 l32 -28 -19 -79 c-15 -59 -28 -87 -51 -110 -41 -42 -60 -88 -47 -117
10 -21 24 -69 44 -154 9 -38 7 -49 -17 -100 -14 -32 -35 -69 -44 -83 -40 -57
-27 -230 21 -270 19 -16 34 -65 44 -147 6 -44 12 -56 42 -79 30 -23 34 -31 29
-57 -3 -17 -13 -38 -21 -47 -10 -11 -15 -38 -15 -81 0 -42 -5 -72 -15 -85 -23
-30 -18 -60 16 -99 37 -42 34 -74 -10 -93 -29 -13 -38 -36 -44 -116 -1 -19
-10 -32 -23 -39 -24 -10 -34 -44 -34 -114 0 -42 -25 -103 -42 -103 -4 0 -8
-26 -8 -58 0 -51 -3 -60 -30 -86 -27 -25 -31 -34 -28 -75 3 -40 7 -47 33 -59
54 -23 60 -29 61 -53 2 -74 32 -87 97 -42 31 22 43 25 65 17 44 -15 41 -49 -7
-74 -43 -22 -49 -38 -31 -86 8 -21 8 -31 -4 -42 -12 -12 -15 -12 -25 7 -15 26
-56 48 -101 52 -33 4 -35 3 -32 -26 2 -17 12 -42 22 -57 11 -15 20 -32 20 -37
0 -6 18 -25 41 -43 38 -31 40 -35 35 -73 -4 -22 -10 -69 -14 -105 -4 -36 -15
-78 -25 -93 -10 -15 -20 -56 -24 -92 l-6 -64 36 -15 c23 -9 38 -23 42 -38 6
-27 0 -186 -8 -194 -3 -3 -25 -8 -49 -11 -24 -3 -49 -10 -55 -15 -17 -13 -6
-212 14 -250 18 -36 1 -78 -52 -131 -31 -31 -36 -42 -30 -65 9 -36 32 -60 72
-77 18 -8 33 -21 33 -29 0 -9 13 -22 29 -30 42 -22 56 -71 26 -96 -22 -18 -50
-4 -68 35 -14 30 -22 35 -52 35 -27 0 -39 -6 -52 -27 -10 -15 -37 -46 -61 -69
-34 -33 -42 -47 -42 -76 0 -32 -3 -36 -31 -42 -17 -3 -54 -6 -81 -6 -43 0 -54
-4 -78 -30 -15 -16 -38 -30 -50 -30 -34 0 -57 -17 -68 -50 -8 -20 -18 -30 -32
-30 -22 0 -29 13 -52 95 l-14 50 -48 3 c-33 2 -60 11 -81 28 -44 33 -71 30
-133 -13 -51 -35 -56 -36 -95 -25 -34 9 -46 8 -64 -4 -13 -8 -23 -21 -23 -30
0 -10 -7 -14 -22 -12 -18 2 -24 11 -28 43 -3 22 -18 58 -33 80 -15 22 -27 49
-27 60 0 14 -15 28 -47 45 -62 34 -72 50 -47 86 40 61 48 190 15 251 -20 37
-51 135 -51 162 0 16 7 48 15 71 19 55 19 83 -4 152 -16 47 -18 66 -10 115 6
32 12 90 16 128 4 50 11 76 25 92 21 22 42 139 32 179 -3 11 -7 61 -9 110 -1
49 -10 143 -20 209 -10 75 -14 143 -10 180 4 33 6 104 5 158 -1 83 -5 107 -27
155 -27 59 -37 157 -20 215 8 31 27 37 27 9 0 -24 27 -49 65 -58 16 -4 44 -22
61 -41 34 -35 58 -42 68 -18 9 24 -12 58 -55 88 -22 16 -57 56 -80 89 l-40 61
7 137 c7 131 6 139 -15 168 -11 17 -21 34 -21 40 0 12 -34 22 -77 22 -73 0
-81 97 -16 193 55 82 57 91 27 156 -14 31 -33 63 -40 72 -23 26 -22 101 2 131
11 14 26 45 33 69 7 24 22 71 32 103 22 69 24 97 8 113 -25 25 -3 165 27 177
9 3 24 6 34 6 22 0 36 70 19 101 -7 13 -8 39 -4 67 10 64 7 192 -4 206 -25 30
-51 139 -51 215 0 78 10 119 37 152 26 31 53 93 53 120 0 15 -9 49 -21 76 -16
37 -22 77 -25 173 -7 168 -29 329 -53 387 -28 68 -35 160 -16 197 19 36 19 67
0 113 -21 51 -19 68 16 108 l32 36 -15 46 c-13 40 -20 48 -54 60 -75 25 -108
98 -64 138 22 20 26 45 9 62 -15 15 -15 76 0 130 9 31 20 47 41 58 29 15 30
18 30 89 0 57 -4 79 -19 98 -11 13 -24 43 -31 67 -12 46 -10 52 41 101 24 23
26 31 22 80 -2 30 -12 79 -20 108 -13 42 -14 60 -5 90 17 57 4 91 -68 181 -33
41 -35 48 -33 111 1 68 17 115 52 160 28 35 15 95 -33 151 -25 30 -36 52 -36
75 0 36 10 47 62 63 20 7 42 19 49 28 11 13 10 17 -6 29 -52 36 -59 60 -25 94
16 16 20 33 20 85 0 57 -2 65 -19 65 -10 0 -31 -16 -45 -35 -31 -40 -44 -43
-76 -17 -17 13 -25 35 -30 73 -11 76 -1 84 108 84 l87 0 -1 48 c0 42 -5 52
-42 90 -23 24 -42 47 -42 52 0 5 17 26 38 48 36 37 37 40 37 113 0 83 8 95 59
88 42 -6 54 5 48 44 -3 22 -12 36 -26 42 -37 14 -72 148 -55 212 6 24 13 59
16 79 4 33 2 38 -30 56 -34 21 -35 22 -42 107 -7 85 -6 87 24 132 32 49 32 54
5 161 -7 29 -22 65 -34 81 -12 17 -25 50 -27 75 l-5 45 43 12 c24 7 51 15 59
18 8 3 35 11 60 16 44 11 45 12 48 53 l3 42 -38 3 c-36 3 -38 5 -38 38 0 31 3
35 25 35 18 0 29 -9 40 -32 17 -36 30 -38 45 -5 5 12 17 25 26 27 19 6 44 67
59 145 6 30 16 65 22 77 6 12 8 34 5 50 -5 28 16 83 33 83 4 0 23 26 41 58 17
31 42 68 54 82 28 31 36 91 24 180 -9 61 -8 74 10 108 25 49 32 222 11 262 -8
15 -14 64 -15 120 -1 67 -6 103 -17 120 -9 14 -19 38 -22 53 -6 25 -1 34 34
66 l41 37 -7 70 c-4 41 -1 100 6 141 9 55 9 90 0 150 -32 219 -75 305 -177
354 -43 21 -62 52 -50 83 3 8 29 27 58 42 57 31 80 72 53 95 -8 6 -14 18 -14
27 0 8 -6 23 -14 31 -7 9 -21 39 -31 67 l-18 51 26 35 c44 57 36 78 -70 184
-40 41 -52 60 -57 96 -4 25 -2 57 4 72 13 36 15 34 -25 50 -19 8 -35 21 -36
28 -3 38 5 77 27 124 13 29 24 57 24 62 0 14 25 21 50 15 22 -6 22 -8 16 -102
-4 -53 -8 -105 -9 -116 -2 -15 5 -21 26 -23 52 -6 74 33 40 71 -14 14 -18 37
-18 91 0 63 -3 75 -28 108 -23 30 -28 45 -26 80 3 34 0 43 -14 46 -9 2 -17 -1
-17 -7 0 -16 -40 -24 -55 -11 -8 7 -15 27 -15 44 0 26 -9 40 -46 72 -73 62
-80 64 -124 39z m4595 -297 c29 -13 40 -45 30 -85 -15 -60 -39 -67 -97 -27
-32 23 -38 32 -38 63 0 21 5 42 12 49 15 15 60 15 93 0z m2025 -63 c17 -9 30
-20 30 -26 0 -18 -42 -5 -58 19 -17 26 -11 27 28 7z m-1280 -45 c20 -20 26
-65 12 -88 -13 -20 -92 42 -92 72 0 39 48 48 80 16z m-1295 0 c-3 -5 -15 -10
-26 -10 -11 0 -17 5 -14 10 3 6 15 10 26 10 11 0 17 -4 14 -10z m1594 -77 c6
-21 15 -58 21 -83 6 -25 14 -54 16 -66 3 -11 -1 -26 -10 -33 -24 -20 -66 27
-68 76 -2 49 3 126 9 136 10 17 23 5 32 -30z m-1629 -3 c12 -7 12 -14 2 -43
-7 -18 -12 -52 -12 -74 0 -32 -4 -42 -20 -46 -10 -3 -23 0 -28 7 -17 21 -37
128 -28 151 6 17 62 20 86 5z m3029 -4 c14 -17 0 -29 -23 -20 -17 7 -20 16 -9
27 10 11 19 8 32 -7z m-5093 -31 c15 -11 16 -14 3 -15 -8 0 -24 7 -35 15 -15
11 -16 14 -3 15 8 0 24 -7 35 -15z m2872 -42 c2 -8 -5 -13 -17 -13 -12 0 -21
6 -21 16 0 18 31 15 38 -3z m672 -53 c0 -5 -4 -10 -10 -10 -5 0 -10 5 -10 10
0 6 5 10 10 10 6 0 10 -4 10 -10z m1845 -20 c3 -5 -1 -10 -10 -10 -9 0 -13 5
-10 10 3 6 8 10 10 10 2 0 7 -4 10 -10z m-1270 -160 c0 -41 -27 -53 -45 -20
-16 30 -3 62 23 58 18 -2 22 -10 22 -38z m-743 -7 c38 -40 46 -78 18 -93 -25
-14 -62 -7 -84 16 -16 15 -22 84 -9 97 15 15 51 5 75 -20z m662 -186 c8 -13 5
-23 -15 -44 -14 -15 -31 -41 -37 -57 -12 -26 -15 -28 -50 -21 -56 10 -104 43
-100 69 2 17 14 23 58 32 30 6 69 18 85 27 34 18 44 17 59 -6z m503 -47 c31
-16 63 -30 70 -30 7 0 13 -4 13 -10 0 -5 -18 -10 -41 -10 -43 0 -109 40 -109
66 0 19 0 19 67 -16z m-328 -39 c11 -7 10 -11 -7 -20 -40 -21 -67 -10 -40 17
14 14 28 15 47 3z m-1749 -88 c11 -15 19 -33 18 -41 -4 -21 -47 -49 -84 -57
-57 -11 -84 46 -48 100 24 36 85 35 114 -2z m-4400 8 c0 -14 -18 -23 -30 -16
-6 4 -8 11 -5 16 8 12 35 12 35 0z m3960 -32 c30 -12 79 -32 109 -46 51 -23
53 -25 34 -38 -11 -8 -26 -28 -33 -44 -27 -67 -145 -68 -204 -2 -18 20 -32
110 -22 138 8 19 53 16 116 -8z m-4295 -59 c0 -17 -34 -24 -54 -11 -7 5 -10
14 -6 20 10 17 60 9 60 -9z m340 -141 c0 -15 -7 -25 -17 -27 -13 -3 -18 3 -18
21 0 13 3 27 7 31 13 12 28 -1 28 -25z m317 -76 c28 -25 23 -59 -12 -73 -50
-21 -78 21 -48 70 16 24 35 25 60 3z m3815 -59 c-9 -9 -28 6 -21 18 4 6 10 6
17 -1 6 -6 8 -13 4 -17z m-4187 -39 c0 -8 -7 -15 -15 -15 -16 0 -20 12 -8 23
11 12 23 8 23 -8z m443 -197 c7 -19 -11 -60 -23 -53 -16 10 -12 65 4 65 8 0
16 -6 19 -12z m3777 -63 c0 -8 -4 -15 -10 -15 -5 0 -10 7 -10 15 0 8 5 15 10
15 6 0 10 -7 10 -15z m-4572 -71 c34 -23 29 -60 -10 -73 -57 -20 -103 33 -62
73 20 20 43 20 72 0z m2444 -10 c12 -26 3 -54 -20 -62 -17 -5 -45 44 -37 68 9
28 43 25 57 -6z m1746 -26 c-5 -14 -68 -21 -68 -8 0 8 23 15 58 19 8 0 12 -5
10 -11z m-3463 -92 c29 -21 33 -125 6 -200 -11 -32 -18 -62 -16 -66 10 -17 -8
-40 -31 -40 -29 0 -29 0 -42 115 -11 99 3 175 36 194 22 14 25 13 47 -3z
m-447 -18 c40 -40 -14 -96 -63 -64 -24 16 -34 54 -18 69 11 12 68 8 81 -5z
m-247 -10 c5 -57 -12 -89 -38 -72 -16 10 -27 60 -17 76 8 13 54 9 55 -4z
m2239 -3 c13 -16 6 -35 -15 -35 -15 0 -24 19 -17 38 6 16 17 15 32 -3z m1850
-334 c0 -6 -4 -13 -10 -16 -5 -3 -10 1 -10 9 0 9 5 16 10 16 6 0 10 -4 10 -9z
m-3422 -45 c27 -27 43 -121 32 -189 -17 -110 -39 -146 -108 -181 -26 -13 -33
-14 -37 -4 -9 22 12 160 31 210 18 47 18 47 -4 93 -26 55 -27 59 -5 80 18 19
68 14 91 -9z m1672 -46 c0 -5 -18 -28 -40 -50 -49 -50 -51 -80 -9 -128 30 -34
31 -39 25 -96 -9 -91 -59 -132 -71 -58 -16 92 -28 116 -70 132 -58 22 -65 28
-65 58 0 60 63 122 124 122 17 1 42 7 56 15 29 17 50 19 50 5z m-365 -46 c0
-10 -8 -20 -18 -22 -22 -4 -35 27 -16 39 20 12 34 5 34 -17z m-2095 -359 c0
-16 -27 -32 -37 -21 -7 7 16 36 28 36 5 0 9 -7 9 -15z m738 -33 c4 -36 -23
-56 -62 -46 -37 9 -50 28 -36 54 26 49 93 44 98 -8z m-158 -78 c0 -16 -16 -19
-25 -4 -8 13 4 32 16 25 5 -4 9 -13 9 -21z m1706 -15 c12 -19 -13 -32 -50 -25
-59 11 -46 25 31 35 6 0 15 -4 19 -10z m-1588 -157 c4 -39 -26 -103 -71 -149
-35 -37 -57 -41 -81 -15 -14 17 -15 26 -5 73 15 70 75 132 123 127 27 -3 31
-7 34 -36z m-231 -48 c8 -21 -13 -42 -28 -27 -13 13 -5 43 11 43 6 0 13 -7 17
-16z m-356 -67 c-16 -16 -26 0 -10 19 9 11 15 12 17 4 2 -6 -1 -17 -7 -23z
m4203 -72 c8 -23 -4 -45 -24 -45 -24 0 -33 15 -25 40 7 23 40 27 49 5z m-2154
-74 c12 -24 13 -101 1 -134 -12 -31 -36 -40 -56 -21 -21 22 -21 137 1 158 21
21 41 20 54 -3z m1958 -259 c2 -14 -2 -22 -11 -22 -19 0 -40 26 -32 40 11 18
40 6 43 -18z m483 -169 c13 -34 2 -45 -64 -60 -44 -10 -56 -9 -79 5 -46 27
-35 45 35 63 89 23 96 23 108 -8z m-21 -233 c0 -11 -7 -20 -15 -20 -8 0 -15 9
-15 20 0 11 7 20 15 20 8 0 15 -9 15 -20z m-563 -206 c7 -20 -12 -63 -32 -71
-15 -5 -65 31 -65 48 0 33 85 54 97 23z m371 -16 c20 -20 15 -66 -9 -78 -30
-16 -49 -5 -49 29 0 57 27 80 58 49z m-2384 -94 c22 -9 20 -66 -3 -95 -15 -19
-21 -21 -34 -11 -24 20 -30 61 -12 88 16 25 23 28 49 18z m-1620 -89 c-4 -8
-10 -12 -15 -9 -11 6 -2 24 11 24 5 0 7 -7 4 -15z m-229 -172 c19 -9 35 -20
35 -25 0 -4 6 -8 14 -8 19 0 28 -14 20 -33 -8 -22 -65 -29 -118 -16 -38 9 -46
15 -46 34 0 13 11 33 26 44 32 25 25 25 69 4z m58 -457 c7 -18 -12 -36 -39
-36 -26 0 -38 14 -30 35 7 19 62 20 69 1z m-208 -451 c0 -33 -3 -40 -19 -40
-13 0 -22 10 -28 30 -11 40 -3 57 24 53 20 -3 23 -9 23 -43z m314 -289 c16
-10 13 -51 -4 -66 -13 -11 -21 -8 -45 15 -17 16 -30 39 -30 51 0 20 3 21 34
14 18 -4 39 -10 45 -14z m4089 -162 c3 -34 -16 -49 -48 -39 -30 9 -34 38 -9
58 31 25 53 18 57 -19z m-2210 -151 c-3 -32 -7 -38 -29 -41 -14 -2 -31 4 -39
13 -11 13 -9 19 10 40 13 14 32 25 42 25 16 0 19 -6 16 -37z m2162 -28 c15
-18 -1 -72 -32 -105 -20 -22 -22 -22 -35 -4 -15 21 -17 62 -3 98 11 30 50 36
70 11z m-3916 -281 c12 -31 7 -56 -11 -52 -23 4 -32 68 -10 68 8 0 18 -7 21
-16z m3666 -208 c0 -27 -24 -56 -46 -56 -15 0 -18 6 -28 53 -6 26 -5 27 34 27
36 0 40 -3 40 -24z m-1951 -101 c56 -28 47 -85 -13 -85 -37 0 -60 21 -70 62
-9 39 31 50 83 23z m-2147 -377 c-15 -15 -26 -4 -18 18 5 13 9 15 18 6 9 -9 9
-15 0 -24z m265 16 c7 -19 -53 -84 -78 -84 -32 0 -31 19 2 60 33 41 65 52 76
24z m4004 -749 c6 -19 4 -32 -4 -37 -15 -9 -47 19 -47 42 0 42 40 38 51 -5z
m-3839 -120 c0 -5 -5 -11 -11 -13 -6 -2 -11 4 -11 13 0 9 5 15 11 13 6 -2 11
-8 11 -13z m4148 -4 c0 -12 -39 -25 -48 -16 -7 7 17 25 36 25 6 0 12 -4 12 -9z
m3288 -38 c-5 -25 -28 -28 -28 -4 0 12 6 21 16 21 9 0 14 -7 12 -17z m-2542
-312 c-10 -16 -36 -13 -36 3 0 17 21 27 34 16 4 -5 5 -13 2 -19z m-4826 -20
c13 -26 13 -98 -1 -106 -31 -20 -109 39 -109 82 0 38 91 58 110 24z m1617
-292 c-8 -64 -92 -144 -123 -118 -22 18 -17 52 16 98 31 42 58 59 94 60 16 1
18 -4 13 -40z m239 -74 c17 -42 18 -55 2 -55 -14 0 -48 54 -48 76 0 28 31 13
46 -21z m-1889 -145 c14 -27 18 -106 6 -113 -5 -3 -22 -8 -39 -11 -61 -13 -85
53 -43 121 25 40 57 42 76 3z m1781 -390 c41 -19 49 -29 35 -44 -4 -4 -6 -37
-4 -73 l3 -66 -76 69 c-82 74 -91 98 -46 121 32 16 37 16 88 -7z m-1838 -220
c0 -5 -4 -10 -10 -10 -5 0 -10 5 -10 10 0 6 5 10 10 10 6 0 10 -4 10 -10z m7
-146 c2 -5 -3 -19 -11 -29 -21 -28 -43 -7 -26 25 11 21 31 23 37 4z m-59 -86
c6 -53 -34 -88 -66 -56 -18 18 -15 59 6 74 27 22 57 13 60 -18z m1957 -139 c4
-6 5 -12 2 -15 -7 -7 -37 7 -37 17 0 13 27 11 35 -2z m-1985 -14 c7 -9 10 -25
6 -41 -10 -37 -50 -30 -54 10 -5 40 25 59 48 31z m4315 -255 c15 -17 16 -24 5
-50 -10 -24 -19 -30 -41 -30 -16 0 -29 5 -29 11 0 7 -23 8 -70 3 -60 -6 -73
-4 -90 11 -11 10 -20 22 -20 27 0 12 42 27 104 37 88 15 121 13 141 -9z
m-2165 -486 c0 -8 -7 -14 -15 -14 -10 0 -15 10 -15 26 0 22 2 25 15 14 8 -7
15 -19 15 -26z m-2057 -117 c7 -19 -8 -96 -22 -110 -18 -18 -46 5 -49 41 -5
54 54 112 71 69z m3961 -106 c3 -5 -1 -14 -8 -20 -16 -13 -32 2 -21 19 8 12
22 13 29 1z m-3946 -224 c6 -6 13 -24 17 -39 14 -56 -73 -60 -94 -5 -16 41 49
79 77 44z m1582 -51 c0 -6 -5 -18 -10 -26 -9 -13 -11 -13 -20 0 -5 8 -10 30
-10 49 l0 34 20 -23 c11 -13 20 -28 20 -34z m2289 -100 c6 -8 31 -19 56 -25
59 -15 75 -33 75 -88 0 -38 -5 -50 -34 -79 -19 -19 -42 -34 -51 -34 -10 0 -33
-13 -52 -30 -51 -46 -68 -40 -128 45 -53 75 -46 97 21 66 61 -30 99 -33 125
-12 l23 18 -24 39 c-24 40 -43 114 -30 114 4 0 13 -6 19 -14z m249 -233 c-4
-33 -37 -43 -58 -18 -17 20 3 45 37 45 21 0 24 -4 21 -27z m-140 -209 c4 -27
-26 -40 -46 -20 -13 13 -13 18 -2 31 18 21 44 15 48 -11z m-3951 -225 c16 -16
3 -49 -23 -55 -29 -7 -44 2 -44 26 0 31 45 51 67 29z m3941 -6 c-4 -22 -22
-20 -26 1 -2 10 3 16 13 16 10 0 15 -7 13 -17z m-14 -48 c-4 -8 -8 -15 -10
-15 -2 0 -4 7 -4 15 0 8 4 15 10 15 5 0 7 -7 4 -15z m-4014 -230 c0 -28 -24
-55 -50 -55 -38 0 -36 65 3 79 31 12 47 3 47 -24z m1745 -179 c29 -29 43 -90
25 -111 -32 -38 -96 2 -106 67 -5 29 -2 38 17 52 31 21 35 20 64 -8z m152
-742 c8 -21 -13 -42 -28 -27 -13 13 -5 43 11 43 6 0 13 -7 17 -16z m-1897 -15
c23 -42 -48 -99 -85 -69 -15 12 -21 71 -8 83 3 4 23 7 44 7 28 0 41 -5 49 -21z
m130 -263 c0 -15 -39 -33 -80 -38 -17 -2 -25 2 -25 12 0 8 11 20 25 27 34 17
80 17 80 -1z m4304 -288 c16 -63 -8 -122 -47 -116 -32 4 -33 40 -2 93 30 51
40 55 49 23z m-1662 -43 c-6 -54 -42 -76 -42 -26 0 42 10 62 29 59 11 -3 15
-12 13 -33z m156 -52 c-5 -25 -28 -28 -28 -4 0 12 6 21 16 21 9 0 14 -7 12
-17z"/>
<path d="M12290 14471 c-74 -22 -96 -39 -120 -95 -12 -26 -34 -61 -50 -79 -41
-47 -46 -76 -20 -123 34 -61 70 -94 102 -94 36 0 36 -21 1 -55 -34 -31 -89
-35 -98 -7 -11 36 -84 54 -126 31 -35 -18 -41 -54 -24 -141 11 -58 12 -85 4
-100 -15 -27 -2 -97 25 -133 30 -40 56 -94 56 -116 0 -31 -21 -66 -46 -77 -13
-6 -30 -25 -38 -41 -14 -27 -14 -31 0 -45 24 -25 69 -20 88 9 24 36 69 34 97
-4 27 -36 47 -42 100 -28 41 10 43 9 69 -23 27 -33 31 -34 98 -35 39 0 74 3
78 8 4 4 11 54 14 111 6 84 11 110 29 135 25 34 42 39 61 16 9 -11 11 -38 7
-97 -6 -75 -5 -84 15 -105 22 -24 65 -29 118 -14 21 6 79 73 80 93 0 4 -15 14
-34 22 -33 14 -51 36 -146 181 -44 67 -46 72 -27 94 8 9 19 35 26 58 13 47 26
57 87 67 35 6 45 4 72 -19 39 -33 40 -41 5 -50 -63 -16 -69 -49 -17 -94 78
-69 124 -90 235 -106 38 -6 59 -34 59 -80 0 -21 4 -23 43 -23 28 1 64 -9 109
-30 36 -18 73 -29 81 -26 8 3 20 18 27 34 10 25 9 32 -10 58 -17 23 -20 39
-17 81 2 28 7 54 10 57 3 4 26 -3 50 -15 77 -37 92 -27 99 66 2 35 7 65 10 69
4 3 17 -1 30 -10 39 -27 75 -21 100 19 26 39 36 42 78 20 18 -9 33 -28 40 -52
15 -45 35 -70 74 -90 25 -13 35 -13 68 -2 48 15 54 9 69 -61 15 -75 12 -121
-11 -146 -27 -28 -25 -49 8 -74 25 -21 34 -22 117 -16 75 5 93 10 113 29 20
21 22 29 16 80 -5 43 -11 58 -26 63 -22 7 -68 -20 -68 -41 0 -18 -34 -37 -53
-29 -8 3 -20 17 -26 31 -16 35 -35 313 -23 325 14 14 129 -30 147 -55 13 -19
12 -25 -5 -55 -27 -44 -25 -58 8 -79 76 -48 122 -103 122 -146 0 -36 28 -67
59 -67 16 0 36 -9 47 -21 10 -12 35 -34 55 -49 35 -28 36 -28 114 -19 55 7
101 21 150 44 38 19 99 40 135 47 36 7 77 21 92 32 24 17 30 17 60 6 39 -16
48 -27 48 -59 0 -13 11 -32 25 -43 14 -11 25 -25 25 -31 0 -20 59 -47 101 -47
21 0 39 3 39 8 0 4 -20 24 -45 45 -25 21 -45 45 -45 52 0 17 38 24 135 28 l70
2 6 68 c7 82 19 96 77 89 33 -3 47 -10 59 -31 9 -14 23 -32 32 -38 20 -18 66
-16 81 2 7 8 16 15 21 15 12 0 31 -77 27 -113 -3 -29 -6 -32 -32 -30 -44 3
-56 -12 -56 -74 0 -64 14 -74 64 -44 l34 21 6 -34 c4 -19 16 -46 27 -60 16
-20 19 -34 14 -54 -20 -79 -18 -96 14 -120 22 -16 31 -31 31 -51 0 -20 7 -31
25 -39 35 -16 42 -15 65 8 36 36 85 18 116 -42 9 -17 29 -42 44 -55 33 -27 75
-107 65 -123 -4 -6 -20 -8 -40 -4 -72 13 -107 -23 -79 -81 9 -19 20 -35 24
-35 5 0 22 -19 39 -42 38 -51 43 -121 12 -159 l-19 -24 -51 19 c-28 10 -58 15
-66 12 -19 -7 -20 -67 -1 -104 7 -15 16 -63 19 -107 5 -65 3 -83 -10 -97 -9
-10 -26 -43 -39 -75 l-23 -56 24 -42 c30 -51 31 -76 5 -100 -11 -10 -20 -25
-20 -33 0 -20 42 -102 52 -102 4 0 8 -7 8 -15 0 -13 -4 -14 -20 -5 -32 17 -62
-4 -50 -34 5 -13 9 -50 9 -81 0 -100 13 -209 29 -233 8 -13 16 -41 18 -64 1
-23 13 -68 25 -100 20 -55 21 -60 5 -77 -22 -24 -13 -45 41 -103 36 -39 43
-54 43 -87 l0 -41 43 6 c35 5 45 3 50 -10 8 -21 -6 -56 -32 -80 -20 -18 -23
-18 -38 -3 -15 15 -18 14 -34 -13 -10 -16 -21 -46 -24 -67 -13 -71 -36 -141
-55 -165 -14 -19 -20 -50 -25 -149 -5 -85 -4 -132 3 -146 8 -15 8 -37 1 -79
-6 -33 -14 -90 -19 -129 -5 -38 -13 -84 -18 -101 -7 -21 -5 -53 4 -105 8 -41
18 -101 23 -134 5 -33 12 -67 15 -75 8 -20 -3 -34 -41 -54 -38 -19 -41 -37
-13 -91 11 -22 20 -49 20 -62 0 -12 18 -43 40 -69 39 -44 40 -47 24 -65 -9
-11 -23 -19 -30 -19 -7 0 -25 -10 -39 -22 l-26 -23 25 -49 c22 -44 24 -57 20
-150 -4 -84 -8 -104 -24 -117 -32 -27 -42 -69 -42 -165 1 -80 5 -100 31 -159
17 -37 31 -69 31 -71 0 -2 -11 -15 -25 -30 -24 -26 -25 -29 -23 -178 1 -83 -4
-192 -11 -243 -13 -85 -12 -95 4 -119 17 -27 17 -28 -9 -46 -15 -12 -26 -29
-26 -43 0 -13 -9 -44 -20 -70 -11 -26 -20 -55 -20 -66 0 -11 -7 -30 -15 -43
-18 -27 -25 -228 -11 -306 7 -39 5 -48 -13 -64 -17 -15 -21 -31 -21 -76 0 -40
-5 -62 -16 -71 -8 -7 -21 -24 -29 -38 -7 -14 -32 -37 -55 -51 -23 -14 -60 -40
-82 -57 -22 -18 -45 -33 -51 -33 -6 0 -37 -26 -69 -57 l-57 -57 -163 -7 c-148
-7 -166 -6 -193 11 -19 11 -61 20 -112 24 -76 7 -183 36 -209 57 -6 5 -43 12
-82 15 -56 5 -76 3 -95 -9 -18 -11 -51 -15 -130 -15 -58 0 -112 -4 -119 -8 -7
-5 -49 -11 -93 -15 -44 -4 -102 -12 -129 -19 -39 -10 -69 -10 -145 0 -140 19
-253 14 -326 -15 -33 -13 -78 -29 -100 -35 -158 -44 -198 -52 -275 -54 -79 -1
-88 -4 -131 -35 -60 -43 -91 -37 -166 31 -44 40 -60 49 -85 46 -32 -3 -37 -11
-52 -80 -6 -29 -60 -68 -93 -68 -20 0 -134 111 -169 165 -16 24 -66 55 -89 55
-7 0 -18 -7 -25 -15 -14 -17 -57 -20 -94 -5 -21 8 -30 5 -50 -15 -14 -14 -30
-25 -35 -25 -16 0 -41 -68 -48 -130 -5 -55 -5 -55 28 -73 19 -10 51 -28 71
-40 36 -21 37 -21 106 -3 123 32 143 16 122 -93 l-13 -70 37 -54 c34 -49 36
-57 26 -78 -20 -38 -42 -59 -61 -59 -10 0 -33 -13 -50 -28 -43 -38 -30 -66 36
-75 25 -4 58 -13 74 -22 34 -17 81 -10 171 24 30 12 63 21 73 21 11 0 32 11
48 24 19 16 51 28 97 36 68 11 112 36 112 63 0 7 9 29 20 49 14 26 16 38 7 41
-20 7 -2 18 39 22 22 2 53 7 71 10 36 8 105 -26 164 -83 32 -29 41 -33 69 -27
20 4 34 15 41 32 12 33 41 26 54 -12 13 -39 17 -41 83 -49 31 -4 62 -12 69
-18 8 -6 13 -32 13 -63 0 -61 14 -78 62 -74 55 3 68 0 68 -19 0 -10 7 -27 16
-38 15 -18 15 -18 10 9 -3 15 -9 38 -12 52 -5 20 -1 27 20 36 31 14 86 1 155
-37 57 -32 77 -31 89 5 14 39 64 52 95 24 26 -23 71 -43 97 -43 10 0 37 -16
60 -35 51 -42 93 -51 173 -35 34 6 91 15 126 18 67 7 75 13 86 64 6 30 30 41
99 42 36 1 41 4 48 32 10 41 32 58 63 50 34 -9 32 -36 -4 -70 -35 -34 -54 -75
-49 -108 5 -35 68 -54 110 -32 29 15 34 15 65 0 50 -24 96 -20 132 9 16 14 31
36 33 48 5 33 49 34 115 1 30 -16 59 -37 65 -48 20 -38 60 -81 126 -133 36
-29 76 -68 90 -87 13 -19 37 -40 53 -46 16 -7 29 -16 29 -21 0 -4 9 -10 20
-14 11 -3 30 -30 45 -63 14 -31 31 -60 38 -64 7 -4 47 -8 90 -8 56 0 87 -5
108 -17 35 -21 37 -31 7 -35 -14 -2 -29 -16 -39 -35 -9 -18 -32 -50 -52 -72
-19 -21 -38 -48 -42 -60 -6 -21 7 -55 32 -80 19 -18 8 -121 -15 -139 -18 -14
-18 -68 1 -90 12 -15 -6 -32 -35 -32 -14 0 -18 -9 -18 -39 0 -32 5 -43 28 -59
15 -10 39 -22 53 -25 19 -5 30 -18 42 -49 28 -80 29 -110 1 -244 -7 -37 29
-85 83 -112 28 -14 39 -28 54 -71 10 -30 16 -58 13 -62 -3 -5 -26 -9 -51 -9
-29 0 -53 -6 -65 -17 -10 -9 -35 -19 -55 -22 -35 -6 -38 -9 -45 -48 -10 -61
-19 -74 -103 -144 -41 -35 -75 -66 -75 -70 0 -4 -24 -40 -53 -80 -30 -41 -56
-81 -60 -91 -8 -21 -127 -36 -163 -19 -38 17 -53 14 -89 -18 -31 -26 -42 -30
-132 -35 -91 -6 -184 -23 -275 -48 -42 -12 -280 -3 -308 12 -17 9 -46 6 -297
-27 -29 -4 -54 0 -77 11 -40 19 -97 31 -221 47 -101 13 -132 13 -227 4 -50 -6
-79 -3 -118 10 -63 21 -134 15 -192 -15 -34 -17 -63 -21 -182 -25 -214 -6
-489 -22 -508 -30 -23 -9 -30 -32 -16 -54 6 -10 8 -26 5 -35 -9 -22 -47 -21
-47 2 0 30 -21 42 -71 42 -43 0 -51 4 -75 36 -30 39 -45 40 -112 13 -27 -11
-37 -11 -65 0 -17 7 -63 18 -102 23 -134 17 -250 42 -270 57 -5 5 -27 11 -49
14 -21 3 -47 14 -57 23 -25 22 -240 39 -284 22 -16 -6 -33 -17 -37 -24 -18
-29 -93 -56 -158 -58 -49 -1 -68 -5 -78 -18 -19 -26 -87 -44 -106 -29 -12 10
-21 9 -45 -3 -16 -9 -37 -16 -45 -16 -26 0 -65 -22 -70 -39 -3 -9 -2 -34 2
-56 6 -34 12 -42 42 -51 61 -20 44 -39 -35 -39 -77 0 -95 -7 -95 -34 0 -34
-25 -45 -74 -32 -44 11 -106 0 -106 -20 0 -4 -12 -19 -26 -32 -36 -34 -45
-108 -17 -140 11 -12 23 -29 26 -38 7 -20 102 -101 142 -122 63 -32 81 11 45
105 -24 64 -25 82 -5 98 13 11 23 10 56 0 52 -18 65 -40 72 -119 5 -54 10 -69
35 -94 39 -39 59 -31 68 28 10 70 53 73 54 4 0 -14 6 -33 13 -43 13 -18 15
-18 49 -2 20 10 50 35 68 57 37 47 72 64 100 49 17 -9 19 -18 13 -56 -5 -37
-2 -47 13 -59 25 -19 75 -19 100 0 27 20 44 18 44 -5 0 -27 41 -67 77 -76 15
-4 40 -15 54 -25 31 -22 74 -33 94 -25 20 7 5 38 -37 78 -36 33 -35 42 4 53
23 7 36 19 43 39 9 25 6 31 -20 52 -27 21 -28 25 -15 48 7 14 11 29 7 32 -3 3
-31 6 -61 5 -63 0 -71 12 -35 57 15 20 20 38 17 72 -7 95 70 34 79 -63 4 -45
9 -57 44 -87 27 -24 39 -43 39 -61 0 -15 8 -36 18 -48 28 -34 181 -66 197 -41
3 5 20 10 36 10 25 0 30 -5 36 -31 3 -18 19 -40 40 -56 30 -23 47 -28 125 -31
97 -5 110 1 160 70 20 29 16 57 -5 40 -22 -17 -68 -23 -83 -11 -32 27 -10 64
51 85 28 9 36 8 49 -5 13 -13 20 -13 34 -3 63 45 105 37 134 -25 21 -45 21
-45 62 -39 52 9 59 16 66 74 4 40 8 46 25 44 41 -8 41 -43 0 -88 -20 -22 -22
-29 -13 -50 15 -32 54 -31 89 2 25 24 31 25 61 15 18 -6 41 -22 50 -34 l17
-22 63 23 c99 36 104 37 137 9 22 -18 47 -26 95 -31 58 -7 67 -11 91 -42 24
-31 30 -34 80 -34 30 0 57 -4 60 -10 9 -15 192 -60 246 -60 30 0 95 25 104 40
3 5 25 18 48 28 46 21 127 102 127 127 0 11 7 15 21 13 15 -2 26 -17 38 -47
13 -37 24 -49 64 -68 l48 -24 37 29 c20 17 45 39 55 50 18 20 18 21 -7 37 -28
19 -34 40 -12 48 7 3 51 1 97 -5 91 -11 109 -23 109 -70 0 -38 30 -95 58 -107
34 -16 79 -13 110 6 37 24 40 29 47 97 4 34 13 71 21 84 19 29 183 107 197 93
6 -6 -7 -31 -40 -73 -59 -75 -78 -123 -63 -162 15 -41 41 -29 57 26 15 53 31
60 63 28 25 -25 25 -31 0 -63 -42 -53 -18 -97 56 -104 27 -2 60 -10 73 -16 21
-11 27 -8 57 28 25 30 34 50 34 78 0 44 -17 49 -51 12 -13 -13 -32 -25 -43
-25 -15 0 -17 5 -11 32 3 18 6 88 5 155 -2 105 0 123 14 123 18 0 66 -78 66
-108 0 -11 4 -23 9 -26 4 -3 11 -20 15 -37 14 -71 53 -77 111 -18 22 23 54 48
72 55 35 15 92 19 94 7 1 -5 3 -36 4 -70 2 -35 6 -67 10 -73 20 -32 92 16 142
96 15 24 36 47 46 50 39 12 89 -72 71 -120 -3 -9 -24 -21 -45 -28 -63 -18 -66
-31 -21 -80 51 -56 58 -71 77 -162 15 -70 15 -82 0 -131 -8 -30 -20 -57 -25
-60 -14 -9 -46 -74 -66 -132 -9 -26 -32 -69 -50 -94 -37 -51 -39 -58 -24 -121
5 -24 17 -78 26 -121 15 -67 24 -85 64 -132 27 -29 64 -68 85 -86 41 -36 75
-96 75 -133 0 -16 11 -32 30 -46 56 -40 31 -95 -41 -94 -22 1 -40 -3 -41 -10
0 -6 -3 -22 -4 -36 -2 -14 -6 -41 -10 -61 -3 -19 -1 -54 6 -77 8 -33 19 -46
48 -61 41 -21 62 -55 62 -101 0 -67 77 -170 128 -170 12 0 24 -4 27 -10 3 -5
19 -10 35 -10 16 0 32 -4 35 -10 3 -5 24 -10 46 -10 33 0 46 6 67 31 58 68 62
71 100 67 21 -3 45 -8 55 -13 13 -6 27 2 55 32 20 22 52 49 70 62 53 37 65 79
53 191 -5 52 -5 102 -1 110 4 8 10 53 12 100 5 77 3 89 -20 128 -24 43 -24 43
-7 98 11 35 15 68 11 92 -15 85 -18 169 -11 277 l7 115 39 48 c22 26 52 68 66
95 14 26 30 47 34 47 10 0 14 29 30 182 10 94 10 142 0 235 -7 65 -19 127 -26
138 -21 35 -23 88 -5 145 14 45 15 65 7 110 -5 30 -11 114 -12 186 -2 84 -8
141 -16 155 -18 33 -23 246 -11 395 10 108 9 127 -7 168 -9 26 -28 54 -40 63
-21 14 -23 21 -17 66 4 28 9 75 11 106 7 116 26 256 35 265 14 14 12 73 -2 99
-7 12 -16 65 -19 117 -3 52 -13 113 -22 136 -14 36 -14 60 -5 195 14 184 14
258 0 404 -11 113 -5 178 22 238 21 49 26 77 15 103 -15 40 -14 160 1 179 9
11 14 66 16 203 3 187 13 362 32 543 7 59 7 110 2 135 -5 21 -10 68 -10 104 0
84 -8 97 -48 81 -35 -14 -52 -8 -52 18 0 11 18 25 51 40 l50 23 -3 122 c-1 66
1 149 6 183 8 54 6 67 -14 107 -14 29 -28 46 -40 46 -27 0 -43 26 -35 57 10
40 44 73 76 73 15 0 31 5 35 11 4 7 6 51 5 99 -1 68 3 97 19 131 23 51 25 90
8 107 -9 9 -15 66 -19 175 -5 133 -10 173 -28 222 -19 52 -21 67 -12 110 11
52 7 252 -7 342 -5 29 -15 60 -24 70 -13 15 -16 48 -16 203 1 162 -2 194 -21
255 -19 61 -20 76 -10 120 6 27 19 59 29 70 32 37 40 63 40 138 0 69 -2 77
-38 128 -36 52 -82 193 -82 253 0 30 29 56 63 56 71 0 118 63 136 181 7 39 19
85 28 102 9 18 20 67 24 111 7 68 5 84 -12 117 -23 46 -24 87 -3 118 21 29 15
129 -10 186 -29 63 -34 78 -41 109 -6 29 -33 69 -75 112 -18 17 -20 28 -14 75
6 50 3 62 -26 118 l-32 62 12 97 c8 53 14 139 14 191 l1 93 -36 29 c-25 19
-40 42 -47 69 -13 51 -7 74 23 90 32 17 36 30 25 97 -13 76 10 185 56 270 33
60 34 64 34 180 0 65 -5 145 -10 178 -7 42 -6 72 1 95 55 181 78 329 60 400
-6 25 -11 63 -12 85 -2 58 -32 180 -56 230 -61 127 -108 165 -207 165 -22 0
-59 9 -83 21 -40 19 -49 20 -145 10 -57 -6 -130 -15 -163 -20 -33 -5 -85 -10
-116 -10 -42 -1 -60 -6 -74 -21 -10 -11 -24 -20 -31 -20 -18 0 -34 32 -34 68
0 48 -31 66 -118 71 -62 3 -84 8 -115 30 -99 66 -134 74 -167 41 -21 -21 -27
-74 -10 -85 6 -3 10 -10 10 -16 0 -12 -37 -12 -45 0 -3 5 -46 7 -98 4 -89 -5
-115 0 -178 34 -4 2 -14 -4 -23 -13 -21 -20 -13 -69 15 -100 25 -27 24 -34 -4
-34 -49 0 -97 62 -97 125 0 32 -43 77 -64 69 -19 -7 -95 21 -110 41 -16 20
-209 22 -257 3 -20 -7 -43 -18 -50 -24 -8 -6 -36 -23 -63 -38 -41 -24 -56 -28
-105 -24 -31 3 -63 7 -71 9 -11 3 -16 -7 -18 -41 -5 -73 -38 -92 -81 -46 -16
17 -20 30 -15 50 10 40 -3 74 -36 91 -47 24 -79 20 -86 -12 -11 -50 -13 -53
-48 -53 -40 0 -56 20 -56 69 0 47 -22 61 -97 61 -52 0 -74 -5 -114 -27 l-49
-28 -82 29 c-88 30 -88 30 -253 7 -73 -11 -83 -15 -110 -47 -23 -26 -41 -36
-75 -41 -86 -14 -111 -9 -139 25 -25 31 -30 33 -111 38 -47 3 -94 7 -105 9
-34 7 -85 59 -85 87 0 23 -45 68 -69 68 -6 0 -17 11 -26 24 -20 30 -72 51
-163 65 -90 14 -113 13 -182 -8z m5 -156 c0 -15 -8 -21 -29 -23 -23 -3 -28 0
-22 13 3 9 6 21 6 27 0 5 10 8 23 6 14 -2 22 -10 22 -23z m1856 -301 c19 -32
24 -70 10 -79 -17 -10 -59 17 -65 41 -8 29 10 77 26 72 7 -3 20 -18 29 -34z
m623 -197 c21 -17 30 -35 36 -70 9 -63 0 -73 -36 -34 -35 37 -59 90 -50 112 7
20 16 19 50 -8z m314 15 c7 -5 15 -32 19 -60 6 -51 5 -53 -36 -92 -23 -22 -51
-40 -62 -40 -33 0 -56 -17 -67 -50 -14 -37 -39 -39 -53 -2 -8 20 -8 35 1 57 7
17 17 51 24 77 15 62 28 75 61 60 41 -19 55 -14 71 23 15 36 21 40 42 27z
m-2145 -30 c9 -8 17 -23 17 -34 0 -14 -8 -18 -39 -18 -31 0 -44 6 -60 26 -27
34 -26 42 2 47 29 5 58 -2 80 -21z m2817 -24 c102 -102 119 -225 39 -272 -24
-14 -29 -24 -29 -54 0 -45 -8 -57 -38 -65 -39 -9 -59 22 -66 100 -3 37 -11
109 -17 159 -19 172 22 221 111 132z m-202 -15 c15 -29 23 -107 12 -123 -8
-13 -11 -13 -24 0 -8 8 -21 36 -27 62 -10 38 -10 49 0 62 17 21 28 20 39 -1z
m-3301 -194 c7 -7 22 -8 48 0 27 7 44 7 58 0 18 -10 19 -18 14 -82 -5 -51 -12
-76 -26 -90 -28 -28 -51 -16 -51 28 0 19 -5 54 -12 78 -10 38 -14 43 -35 39
-18 -3 -23 0 -23 17 0 23 10 27 27 10z m2226 -11 c15 -23 -8 -48 -45 -48 -36
0 -47 24 -22 51 21 23 52 22 67 -3z m1632 -206 c25 -15 33 -30 43 -79 19 -84
14 -107 -23 -110 -16 -2 -50 7 -75 20 -39 19 -45 27 -48 57 -3 39 40 130 61
130 7 0 26 -8 42 -18z m237 -63 c17 -9 19 -17 13 -47 -3 -21 -13 -48 -22 -61
-14 -21 -13 -27 2 -61 27 -59 16 -65 -72 -38 -39 11 -43 36 -12 64 15 13 19
27 16 49 -6 37 20 105 40 105 8 0 23 -5 35 -11z m118 -109 c0 -5 -2 -10 -4
-10 -3 0 -8 5 -11 10 -3 6 -1 10 4 10 6 0 11 -4 11 -10z m-171 -204 c19 -7 36
-17 38 -23 4 -12 -70 -33 -114 -33 -26 0 -114 39 -137 61 -15 14 174 9 213 -5z
m0 -1325 c8 -14 7 -22 -3 -30 -18 -15 -52 10 -43 33 9 22 34 20 46 -3z m271
-293 c0 -7 -7 -22 -15 -32 -8 -11 -15 -28 -15 -38 0 -18 -26 -36 -36 -25 -16
16 34 107 58 107 4 0 8 -6 8 -12z m-554 -883 c4 -8 4 -22 0 -30 -7 -19 -36 -8
-36 14 0 32 26 43 36 16z m334 -195 c23 -27 39 -54 36 -59 -4 -5 -33 1 -69 13
-65 24 -83 50 -57 82 22 25 47 15 90 -36z m-395 14 c15 -15 15 -18 1 -32 -12
-13 -18 -13 -30 -2 -20 16 -21 50 -2 50 8 0 22 -7 31 -16z m60 -524 c3 -5 24
-10 46 -10 34 0 39 -3 39 -24 0 -38 -21 -48 -55 -26 -17 11 -40 20 -52 20 -22
0 -32 27 -16 43 10 10 31 8 38 -3z m209 -46 c11 -4 16 -19 16 -48 0 -53 -19
-81 -48 -72 -17 6 -22 15 -22 44 0 21 7 48 16 60 17 25 16 24 38 16z m-52
-270 c47 -14 85 -134 45 -142 -25 -5 -116 25 -147 50 -46 36 -44 89 5 101 19
5 62 1 97 -9z m-3627 -2814 c4 -6 22 -17 41 -25 25 -10 39 -26 53 -57 35 -82
35 -87 5 -98 -40 -15 -60 -4 -98 53 -45 69 -60 102 -53 121 7 18 42 22 52 6z
m3893 -257 c-2 -17 -10 -29 -20 -31 -14 -3 -18 3 -18 27 0 25 4 31 21 31 16 0
20 -5 17 -27z m-288 -812 c0 -33 -16 -49 -33 -32 -7 7 -7 18 1 36 16 34 32 32
32 -4z m448 -607 c-2 -21 -8 -29 -23 -29 -26 0 -32 37 -9 59 21 22 37 8 32
-30z m-503 -884 c11 -12 20 -41 23 -73 l4 -52 -47 -18 c-65 -24 -76 -13 -74
72 1 36 6 72 11 79 16 19 63 14 83 -8z m69 -155 c3 -8 2 -15 -3 -15 -5 0 -14
7 -21 15 -10 12 -10 15 3 15 8 0 17 -7 21 -15z m-909 -334 c0 -8 -8 -19 -17
-25 -22 -13 -44 5 -34 29 7 20 51 16 51 -4z m655 -76 c13 -16 4 -20 -30 -15
-20 3 -23 7 -15 19 9 16 30 14 45 -4z m-3479 -11 c11 -14 10 -20 -14 -40 -16
-13 -35 -24 -43 -24 -21 0 -38 49 -23 66 16 19 64 18 80 -2z m3205 -23 c-4 -6
-16 -11 -27 -11 -21 0 -27 35 -6 43 16 6 41 -18 33 -32z m62 -133 c2 -19 -3
-30 -18 -38 -46 -25 -80 18 -44 55 25 24 58 15 62 -17z m-155 10 c7 -21 -4
-38 -24 -38 -14 0 -19 7 -19 25 0 18 5 25 19 25 11 0 21 -6 24 -12z m-4398
-28 c3 -5 -1 -10 -10 -10 -9 0 -13 5 -10 10 3 6 8 10 10 10 2 0 7 -4 10 -10z
m4145 -50 c0 -11 -7 -20 -15 -20 -8 0 -15 9 -15 20 0 11 7 20 15 20 8 0 15 -9
15 -20z m-1805 -60 c0 -22 -29 -18 -33 3 -3 14 1 18 15 15 10 -2 18 -10 18
-18z m3101 -408 c14 -10 34 -68 34 -103 0 -23 -6 -29 -35 -39 -56 -19 -79 -11
-83 29 -8 78 41 143 84 113z m-116 -844 c0 -24 -36 -68 -57 -68 -20 0 -16 29
10 60 27 35 47 38 47 8z m-120 -553 c0 -16 -27 -32 -37 -21 -7 7 16 36 28 36
5 0 9 -7 9 -15z"/>
<path d="M10260 13795 c-12 -14 -11 -18 1 -26 20 -12 34 -6 34 16 0 24 -19 30
-35 10z"/>
<path d="M13574 13655 c-4 -9 16 -43 52 -88 70 -86 71 -87 107 -87 20 0 30 7
37 25 18 49 -16 92 -106 136 -70 33 -82 35 -90 14z"/>
<path d="M8557 13603 c-10 -3 -23 -17 -28 -31 -9 -23 -7 -30 12 -45 42 -34
109 -2 83 40 -15 24 -46 41 -67 36z"/>
<path d="M12933 13523 c-21 -8 -15 -42 11 -58 23 -15 27 -15 50 0 30 20 32 28
10 49 -15 16 -46 20 -71 9z"/>
<path d="M13390 13520 c0 -13 28 -26 73 -34 30 -6 39 -4 44 10 3 9 0 20 -8 25
-19 12 -109 11 -109 -1z"/>
<path d="M13060 12379 c-76 -22 -272 -49 -363 -49 -69 0 -111 -19 -132 -60
-18 -35 -44 -38 -120 -14 -63 20 -329 22 -426 4 -64 -12 -68 -12 -165 21 -110
38 -176 42 -302 21 -102 -17 -115 -26 -107 -81 5 -31 3 -41 -5 -36 -6 4 -9 13
-6 20 6 18 -13 33 -52 41 -25 5 -33 2 -48 -20 -22 -34 -64 -56 -107 -56 -34 0
-71 -22 -112 -67 -15 -16 -27 -21 -47 -17 -27 6 -41 30 -53 92 -7 32 -7 32
-64 32 -35 0 -65 -6 -77 -15 -33 -25 -102 -18 -189 20 -90 40 -173 47 -213 19
-30 -21 -28 -29 13 -53 50 -29 46 -51 -10 -51 -64 0 -131 26 -195 75 -30 23
-64 45 -75 49 -33 10 -272 -12 -303 -28 -15 -8 -42 -29 -61 -46 -34 -31 -109
-70 -136 -70 -22 0 -28 33 -9 47 10 7 21 13 26 13 4 0 8 8 8 18 0 28 -123 50
-188 34 -26 -7 -76 -16 -112 -22 -88 -13 -149 -26 -183 -39 -49 -19 -93 -14
-110 13 -21 31 -66 39 -118 21 -23 -8 -53 -15 -67 -15 -13 0 -40 -10 -59 -21
-31 -19 -45 -21 -141 -17 -141 6 -173 -5 -194 -71 -14 -44 -14 -50 2 -71 23
-31 125 -32 168 -2 35 25 107 51 119 43 5 -3 9 -27 10 -53 1 -43 -1 -48 -19
-48 -12 0 -29 7 -39 16 -26 23 -73 9 -123 -35 -23 -21 -60 -43 -84 -50 -24 -7
-46 -19 -49 -27 -8 -22 26 -51 69 -59 34 -6 39 -5 47 18 14 35 33 39 152 32
l105 -7 17 26 c24 36 80 37 102 2 9 -13 26 -27 39 -30 19 -5 22 -11 18 -35 -4
-27 1 -32 53 -62 31 -17 59 -38 62 -45 4 -10 9 -11 24 -1 23 14 24 30 3 62
-30 46 20 72 76 40 33 -19 99 -19 137 0 24 12 36 13 64 3 52 -17 111 -57 116
-79 3 -10 19 -26 36 -34 29 -14 32 -14 54 7 21 19 35 22 150 23 l128 2 65 -61
c36 -34 67 -64 68 -68 2 -5 12 -8 23 -8 11 0 31 -8 46 -17 29 -19 28 -15 -5
38 -12 19 -40 45 -62 58 -58 33 -87 94 -56 121 17 14 248 50 321 50 65 0 135
-17 157 -37 10 -9 18 -30 18 -48 0 -45 41 -63 108 -47 43 10 48 9 81 -19 20
-16 39 -29 43 -29 14 0 9 31 -7 46 -8 9 -15 26 -15 39 0 13 -4 27 -10 30 -15
10 -12 58 6 84 15 20 23 23 67 18 34 -3 55 -11 66 -24 19 -25 62 -32 206 -38
199 -7 232 -17 300 -91 17 -18 92 -25 162 -14 80 13 107 8 138 -26 26 -28 76
-43 143 -44 33 0 48 -6 67 -26 14 -15 25 -31 25 -35 0 -5 12 -20 28 -34 25
-24 33 -26 96 -23 53 3 72 8 85 24 14 17 28 19 110 19 55 0 95 -4 96 -10 22
-101 46 -117 96 -62 29 32 29 32 148 37 66 3 123 8 127 13 4 4 -2 24 -13 45
-11 20 -24 47 -28 60 -5 19 -3 22 22 22 20 0 40 -11 63 -35 41 -43 60 -44 88
-5 32 42 76 48 132 16 38 -22 52 -24 105 -19 40 4 70 1 85 -7 23 -12 140 -38
215 -47 51 -6 84 18 94 67 13 67 63 69 139 5 26 -22 30 -31 25 -59 -6 -36 4
-47 43 -52 22 -2 176 -56 219 -76 14 -6 31 -5 50 2 23 9 44 8 96 -5 62 -15 69
-15 98 0 18 9 37 27 43 41 9 19 18 24 37 22 21 -2 28 -11 36 -43 13 -53 20
-61 52 -68 37 -7 115 20 186 67 74 48 87 73 59 118 -25 42 -45 158 -47 273 -1
78 -5 96 -28 137 -15 26 -27 53 -27 60 0 8 -5 19 -12 26 -7 7 -24 42 -39 79
-24 60 -31 69 -80 96 -30 16 -66 40 -80 54 -25 23 -37 25 -190 34 -90 5 -173
11 -184 13 -11 3 -29 -2 -39 -10 -23 -17 -74 -18 -113 -3 -15 6 -84 15 -153
20 -69 5 -141 14 -160 20 -47 15 -326 21 -370 8z m-2161 -363 c9 -11 10 -20 1
-36 -13 -25 -57 -24 -73 2 -23 36 45 67 72 34z m2239 -38 c2 -18 -5 -34 -25
-52 -52 -49 -80 -16 -42 48 26 45 62 47 67 4z m-2858 -83 c0 -8 -7 -15 -15
-15 -8 0 -15 7 -15 15 0 8 7 15 15 15 8 0 15 -7 15 -15z m-1120 -55 c0 -13 -7
-20 -18 -20 -26 0 -34 11 -21 27 17 20 39 16 39 -7z m3549 -81 c13 -23 12 -28
-5 -52 -14 -20 -24 -25 -39 -20 -11 3 -38 7 -60 9 -22 1 -44 2 -48 3 -4 1 15
22 44 47 57 51 85 54 108 13z m-549 -71 c27 -29 25 -46 -6 -58 -44 -17 -54
-13 -54 23 0 31 14 57 32 57 4 0 16 -10 28 -22z"/>
<path d="M15945 10821 c-3 -5 -1 -12 5 -16 5 -3 10 1 10 9 0 18 -6 21 -15 7z"/>
<path d="M14055 10670 c-11 -5 -41 -9 -66 -9 -28 -1 -51 -7 -59 -16 -7 -8 -28
-18 -49 -21 -20 -4 -50 -13 -68 -21 -18 -7 -49 -13 -69 -13 -57 0 -206 30
-232 47 -27 16 -184 35 -222 26 -14 -3 -35 -13 -46 -22 -26 -21 -176 -21 -243
-1 -34 10 -48 10 -62 1 -24 -14 -126 -40 -199 -51 -54 -7 -130 6 -213 39 -22
9 -45 8 -100 -5 -106 -23 -121 -33 -125 -77 -3 -32 -7 -37 -27 -37 -13 0 -45
13 -71 29 -41 27 -54 30 -127 29 -47 -1 -109 6 -145 15 -84 22 -94 22 -164
-10 l-60 -27 -67 18 c-68 18 -166 60 -175 75 -3 4 -81 7 -173 7 -155 -2 -171
-4 -205 -25 -49 -30 -101 -35 -140 -15 -26 14 -37 14 -69 4 -21 -7 -40 -18
-43 -25 -4 -13 -25 -25 -121 -72 -27 -14 -64 -36 -82 -49 -17 -13 -40 -24 -51
-24 -28 0 -170 88 -183 113 -16 30 -15 30 -38 17 -16 -8 -21 -20 -21 -51 0
-24 -5 -42 -13 -45 -7 -2 -54 3 -103 13 -88 18 -89 19 -112 61 -19 33 -32 44
-65 53 -59 17 -87 12 -124 -23 -27 -26 -37 -30 -66 -24 -18 3 -45 18 -58 32
-23 25 -26 26 -119 19 -109 -7 -143 -17 -165 -51 -21 -32 -53 -31 -122 6 -51
27 -64 30 -150 30 -52 0 -148 -7 -214 -16 -93 -12 -135 -13 -195 -5 -41 6 -99
11 -127 11 -57 0 -140 20 -194 45 -27 13 -37 14 -49 5 -24 -21 -16 -45 26 -79
22 -17 40 -36 40 -40 0 -5 -15 -12 -34 -15 -48 -9 -85 -40 -68 -57 16 -17 15
-50 -3 -85 -18 -36 -19 -113 -1 -136 17 -23 73 -24 97 -2 14 13 17 26 12 65
-6 49 -6 50 48 102 l54 53 85 -2 c107 -3 180 -17 196 -39 17 -23 10 -37 -29
-58 -31 -17 -52 -52 -87 -145 -17 -44 -56 -54 -82 -21 -10 13 -23 30 -28 37
-15 17 -76 15 -94 -4 -9 -8 -16 -23 -16 -33 0 -22 31 -51 54 -51 9 0 31 -7 48
-16 42 -22 102 -20 177 6 75 25 73 25 117 -5 61 -42 79 -31 98 58 9 40 34 46
62 14 17 -20 22 -35 17 -60 -5 -36 15 -67 44 -67 12 0 14 -9 11 -40 -2 -27 1
-41 10 -45 28 -10 108 -4 126 10 46 35 102 4 175 -95 55 -76 69 -82 120 -52
27 15 31 23 31 60 0 23 5 42 10 42 6 0 33 -11 60 -25 27 -14 73 -30 102 -36
29 -5 63 -15 76 -22 28 -14 111 5 130 30 7 10 12 48 12 93 0 97 23 123 75 84
17 -12 20 -27 20 -87 0 -71 0 -72 27 -75 21 -3 30 3 42 26 36 69 289 129 424
100 70 -15 68 -48 -4 -48 -30 0 -30 -11 1 -61 24 -36 29 -40 63 -37 29 2 37 8
42 28 7 32 44 39 122 25 42 -7 65 -18 90 -42 40 -39 64 -41 120 -12 32 16 53
20 89 16 51 -6 69 4 69 39 0 56 21 67 64 33 23 -18 31 -20 56 -9 16 7 34 18
41 26 6 7 44 30 85 50 l74 36 63 -15 c34 -8 98 -21 142 -27 85 -12 141 -28
190 -54 17 -9 39 -16 49 -16 10 0 45 -27 78 -60 49 -51 63 -60 94 -60 56 0 91
24 106 73 6 23 16 45 20 48 5 3 17 21 26 40 12 25 25 35 46 37 45 5 53 -13 17
-39 -33 -25 -39 -54 -17 -84 11 -15 29 -19 102 -22 48 -2 103 2 120 7 40 14
65 3 114 -50 46 -49 89 -70 144 -70 25 0 64 -7 87 -17 79 -31 148 9 101 60
-21 23 -62 111 -62 132 0 6 9 20 20 30 19 18 22 17 74 -8 30 -15 59 -27 64
-27 5 0 23 23 40 50 41 67 72 69 103 8 30 -60 53 -83 115 -113 47 -23 68 -46
63 -71 -6 -33 1 -36 61 -29 80 9 175 -8 277 -51 61 -25 96 -34 140 -34 41 0
67 -6 88 -20 43 -28 53 -25 66 20 9 28 17 40 28 38 36 -7 18 -88 -19 -88 -31
0 -24 -28 11 -45 48 -25 236 -33 288 -11 23 9 54 16 69 16 16 0 37 7 48 15 10
8 40 15 66 15 38 0 52 5 71 26 14 15 27 41 30 58 3 18 17 50 32 72 22 32 26
47 22 84 -3 24 0 67 6 95 9 43 7 61 -7 106 -12 36 -16 68 -12 99 6 44 3 50
-55 136 -75 109 -85 128 -94 179 -5 31 -15 45 -41 63 -20 12 -39 22 -43 22 -4
0 -17 11 -29 25 -25 29 -51 31 -92 10 -25 -13 -33 -13 -63 0 -20 8 -38 19 -42
25 -20 33 -158 52 -210 30z m-3251 -176 c22 -22 20 -61 -4 -74 -43 -23 -79 13
-66 66 7 28 46 33 70 8z m214 -29 c10 -21 9 -27 -4 -32 -20 -8 -49 21 -41 41
9 24 32 19 45 -9z m1458 -9 c8 -21 -14 -56 -31 -50 -18 7 -20 35 -3 52 16 16
27 15 34 -2z m-286 -81 c32 -39 -8 -117 -49 -95 -20 10 -47 83 -37 99 10 16
72 13 86 -4z m-1957 -27 c7 -20 -11 -58 -27 -58 -17 0 -32 42 -21 59 9 15 42
14 48 -1z m296 -86 c26 -48 -54 -74 -85 -27 -21 32 -11 45 36 45 27 0 42 -5
49 -18z m2001 -228 c11 -12 11 -18 -1 -29 -11 -12 -22 -13 -53 -4 -37 10 -37
11 -20 30 21 23 57 25 74 3z m1395 -174 c0 -35 -4 -45 -18 -48 -22 -4 -31 19
-23 64 5 26 12 34 24 32 13 -2 17 -14 17 -48z m-1025 10 c0 -5 -4 -10 -10 -10
-5 0 -10 5 -10 10 0 6 5 10 10 10 6 0 10 -4 10 -10z"/>
<path d="M8692 10403 c-6 -11 -6 -28 -1 -41 7 -18 15 -23 36 -20 34 4 42 32
17 59 -21 24 -41 24 -52 2z"/>
<path d="M12854 9107 c-3 -9 -4 -28 -2 -44 3 -26 6 -28 56 -31 29 -2 52 1 52
7 0 26 -21 60 -42 66 -13 4 -31 9 -41 11 -9 3 -20 -1 -23 -9z"/>
<path d="M13545 9095 c-61 -38 -102 -55 -129 -55 -14 0 -37 -5 -53 -12 -15 -6
-65 -14 -110 -18 -70 -5 -87 -10 -110 -32 -46 -42 -71 -51 -103 -38 -43 18
-105 4 -129 -28 -19 -26 -20 -26 -76 -15 -32 7 -62 10 -67 7 -20 -13 -80 -5
-100 13 -16 15 -42 19 -143 23 -100 5 -128 9 -144 24 -23 21 -72 15 -110 -15
-29 -23 -145 -25 -206 -4 -22 8 -56 12 -75 9 -19 -3 -98 -9 -175 -14 -240 -14
-269 -28 -290 -136 -11 -54 -35 -68 -111 -61 -52 4 -75 1 -108 -14 -23 -11
-64 -19 -95 -19 -29 0 -71 -5 -93 -12 -34 -10 -42 -9 -67 9 -32 24 -111 53
-144 53 -13 0 -28 5 -35 12 -18 18 -35 -4 -36 -49 -1 -28 -6 -39 -19 -41 -32
-6 -66 8 -106 43 -63 57 -230 100 -350 90 -52 -5 -102 -3 -145 6 -64 12 -67
12 -119 -15 -53 -26 -55 -27 -169 -17 -81 6 -123 14 -142 26 -26 17 -29 17
-64 0 -27 -14 -67 -20 -148 -23 -103 -4 -115 -2 -165 21 -30 14 -85 34 -122
44 -68 18 -69 18 -107 -5 -48 -27 -60 -27 -110 -2 -22 11 -47 20 -56 20 -10 0
-28 10 -41 22 -22 20 -26 21 -56 9 -18 -8 -51 -16 -74 -18 -61 -7 -53 -23 10
-23 72 0 87 -17 87 -99 0 -52 -4 -66 -25 -86 -41 -42 -61 -31 -106 55 -48 91
-49 98 -32 116 16 15 15 18 -12 37 -16 12 -42 28 -59 37 -18 9 -32 24 -34 38
-4 28 -34 44 -75 40 -30 -3 -32 -6 -35 -45 -3 -35 -9 -47 -35 -65 -45 -31 -56
-48 -57 -85 0 -49 20 -83 62 -104 21 -11 38 -23 38 -27 -1 -4 -15 -16 -33 -27
-22 -14 -32 -28 -32 -45 0 -22 5 -26 48 -31 52 -5 70 -22 60 -54 -7 -25 -18
-32 -65 -45 -35 -10 -38 -13 -38 -49 0 -54 18 -99 43 -107 12 -3 29 -12 37
-19 8 -7 29 -15 45 -19 17 -4 57 -21 90 -38 67 -35 143 -52 163 -36 17 14 15
47 -3 54 -21 9 -19 36 2 32 10 -2 24 -17 32 -33 24 -51 36 -52 101 -8 19 13
47 23 63 23 15 0 46 10 68 23 l40 22 27 -32 c22 -26 30 -30 45 -22 19 11 57 3
57 -12 0 -5 -11 -14 -25 -19 -30 -12 -42 -37 -28 -59 8 -12 28 -16 89 -17 44
0 117 -8 164 -19 47 -10 100 -18 119 -17 20 0 50 -9 73 -24 48 -30 66 -28 88
11 25 46 80 58 242 52 43 -1 50 2 86 41 21 23 46 42 56 42 9 0 34 -11 56 -25
31 -19 53 -25 100 -25 55 0 60 -2 74 -29 26 -49 46 -48 91 3 38 42 43 45 107
51 95 10 192 -16 233 -62 17 -19 46 -38 65 -43 19 -5 45 -12 57 -15 19 -6 23
-1 36 41 l14 49 54 0 c58 0 115 -24 180 -76 l37 -29 172 0 c94 0 180 4 190 10
34 18 186 24 222 9 20 -8 59 -13 98 -11 69 3 103 3 163 1 28 -1 57 10 118 45
97 57 132 59 137 9 4 -43 23 -47 79 -17 38 20 56 24 88 18 44 -7 127 -47 146
-70 25 -31 248 -85 272 -66 7 5 30 15 52 22 22 7 53 24 68 39 l28 26 52 -27
c65 -34 134 -58 168 -58 14 0 29 -4 35 -9 5 -5 59 -11 120 -15 l112 -6 6 26
c4 14 26 47 49 72 24 26 51 59 60 75 15 23 24 27 62 27 24 0 82 -9 129 -20 87
-20 138 -18 166 6 18 15 98 44 122 44 11 0 20 -10 24 -25 4 -16 16 -28 32 -32
21 -5 31 0 58 30 49 58 79 47 79 -28 0 -31 5 -42 23 -51 13 -6 29 -17 35 -23
21 -21 57 -11 93 27 58 61 126 163 150 225 13 33 28 64 33 71 5 6 12 33 16 59
8 50 -1 80 -35 122 -9 11 -29 58 -45 105 -15 47 -31 90 -35 95 -4 6 -10 28
-13 50 -9 59 -48 125 -77 132 -14 4 -49 17 -79 30 -101 45 -245 73 -393 78
-75 2 -161 0 -191 -5 -44 -7 -72 -5 -133 10 -42 11 -82 24 -88 30 -17 17 -69
11 -111 -15z m-877 -357 c-2 -13 -7 -23 -13 -23 -5 0 -11 10 -13 23 -2 15 2
22 13 22 11 0 15 -7 13 -22z m-2966 -90 c-9 -9 -15 -9 -23 -1 -7 7 -9 20 -5
29 6 16 8 16 23 1 13 -13 15 -19 5 -29z m4753 12 c0 -7 -6 -15 -12 -17 -8 -3
-13 4 -13 17 0 13 5 20 13 18 6 -3 12 -11 12 -18z m-965 -79 c0 -6 -4 -13 -10
-16 -5 -3 -10 1 -10 9 0 9 5 16 10 16 6 0 10 -4 10 -9z m-1189 -41 c44 -24 11
-70 -50 -70 -49 0 -55 51 -7 70 28 12 34 12 57 0z m-1633 -51 c4 -19 -19 -31
-38 -19 -18 11 -4 42 17 38 10 -2 19 -10 21 -19z m-1670 -11 c16 -16 15 -23
-4 -42 -17 -18 -64 -22 -64 -6 0 18 31 60 44 60 7 0 17 -5 24 -12z m828 -13
c4 -8 3 -26 0 -40 -5 -18 -13 -25 -32 -25 -28 0 -39 19 -30 55 5 18 13 25 32
25 13 0 27 -7 30 -15z m-957 -79 c9 -11 8 -18 -4 -30 -22 -22 -45 -20 -45 4 0
14 19 36 36 40 1 0 7 -6 13 -14z m5671 -53 c0 -47 -24 -73 -67 -73 -38 0 -42
14 -18 60 16 32 40 49 68 50 13 0 17 -8 17 -37z m-2768 -5 c-12 -12 -35 -1
-27 12 3 5 13 6 21 3 10 -4 12 -9 6 -15z m-2084 -95 c-2 -21 -9 -29 -27 -31
-30 -5 -41 8 -30 36 6 15 17 22 34 22 23 0 26 -4 23 -27z"/>
<path d="M13772 8122 c-15 -5 -16 -83 0 -117 12 -27 28 -34 28 -12 0 7 16 28
36 46 l37 32 -22 23 c-23 24 -56 36 -79 28z"/>
<path d="M10680 8060 c-23 -17 -24 -19 -6 -26 22 -9 50 6 54 30 5 21 -17 20
-48 -4z"/>
<path d="M6617 7359 c-3 -12 0 -22 9 -26 20 -8 27 2 19 26 -8 27 -21 27 -28 0z"/>
<path d="M7246 7193 c8 -35 20 -48 29 -33 8 13 -13 60 -27 60 -5 0 -5 -12 -2
-27z"/>
<path d="M7320 7055 c0 -15 11 -36 25 -49 14 -13 25 -27 25 -31 0 -14 42 -76
48 -71 2 3 0 11 -5 18 -6 7 -19 40 -29 73 -23 78 -64 116 -64 60z"/>
<path d="M7440 6856 c0 -14 29 -31 38 -22 2 3 2 12 -1 21 -8 19 -37 20 -37 1z"/>
<path d="M9616 6275 c-4 -15 -3 -32 3 -38 9 -9 100 -5 146 6 11 3 22 6 25 6
19 3 -82 43 -120 48 -45 5 -48 4 -54 -22z"/>
<path d="M13308 6214 c-22 -22 -6 -43 50 -64 107 -41 112 -42 122 -15 14 36 3
53 -38 65 -54 16 -126 23 -134 14z"/>
<path d="M11777 5472 c-79 -36 -180 -54 -256 -47 -52 5 -80 2 -131 -14 -78
-25 -178 -28 -186 -6 -14 34 -181 71 -260 56 -31 -6 -68 -6 -99 0 -27 6 -79 7
-115 4 -126 -12 -467 -28 -605 -30 -113 -1 -146 -4 -172 -18 -40 -22 -83 -23
-158 -3 -32 9 -76 16 -98 16 -21 0 -56 9 -78 19 -22 11 -53 23 -70 26 -36 8
-205 -13 -239 -29 -14 -7 -52 -18 -85 -25 -117 -25 -124 -35 -80 -121 21 -41
31 -50 60 -56 71 -13 69 -61 -6 -104 -48 -26 -65 -17 -75 39 -4 20 -16 53 -28
75 -52 96 -42 88 -100 81 -47 -6 -56 -4 -83 19 -36 30 -82 34 -153 12 -47 -14
-54 -30 -36 -83 11 -33 -43 -64 -98 -57 -23 3 -46 1 -53 -3 -21 -14 -26 -59
-9 -76 20 -20 20 -48 -1 -91 -15 -32 -15 -36 1 -60 22 -35 62 -35 70 -1 12 47
106 47 106 0 0 -16 9 -28 27 -37 53 -26 39 -37 -40 -31 -68 5 -76 4 -86 -15
-19 -35 -41 -52 -70 -52 -40 0 -83 -43 -79 -78 2 -20 16 -35 53 -59 90 -57
154 -105 159 -120 3 -7 -1 -40 -10 -73 -15 -59 -15 -62 6 -96 25 -40 17 -58
-30 -68 -35 -6 -39 -30 -14 -78 17 -34 14 -39 -36 -58 -52 -20 -81 -41 -90
-64 -13 -36 -1 -46 52 -46 41 0 51 -3 55 -19 3 -12 21 -25 47 -33 47 -15 47
-12 9 -126 l-27 -82 -62 6 -61 7 5 -119 c2 -66 9 -125 14 -131 12 -15 38 -17
38 -3 0 17 47 11 54 -7 9 -22 -6 -35 -51 -42 -29 -5 -38 -11 -39 -27 -1 -11
-6 -29 -13 -41 -6 -12 -11 -38 -11 -57 0 -32 3 -36 25 -36 28 0 35 -27 9 -37
-8 -3 -31 -37 -50 -75 l-35 -69 16 -51 c8 -28 15 -61 15 -73 0 -21 7 -29 74
-79 34 -25 38 -33 33 -61 -3 -17 -21 -56 -40 -86 -32 -49 -34 -57 -22 -79 7
-14 29 -31 49 -38 44 -16 45 -29 7 -65 -27 -25 -41 -54 -55 -117 -3 -15 -31
-46 -67 -75 l-62 -49 6 -87 c6 -90 20 -130 56 -163 29 -26 26 -40 -11 -57 -36
-15 -38 -27 -23 -115 6 -35 3 -47 -16 -73 -19 -26 -21 -34 -11 -56 15 -33 6
-55 -24 -55 -32 0 -58 -41 -52 -82 3 -18 0 -46 -7 -63 -7 -16 -16 -63 -20
-103 -8 -79 8 -122 44 -122 23 0 51 -31 51 -57 0 -26 37 -59 80 -70 25 -7 36
-16 38 -31 5 -30 -41 -41 -78 -18 -37 22 -109 22 -117 0 -4 -10 1 -22 11 -29
28 -21 38 -73 20 -108 -13 -23 -14 -35 -5 -54 15 -34 -12 -89 -56 -115 -35
-21 -39 -32 -24 -72 7 -18 19 -25 43 -28 22 -2 34 -9 38 -23 3 -11 10 -21 15
-21 6 -1 20 -5 32 -8 17 -5 26 -1 39 19 20 31 44 32 81 1 40 -34 92 -58 109
-52 8 3 22 23 31 43 8 21 28 53 44 71 36 40 37 66 4 96 -28 26 -31 52 -10 80
21 27 19 49 -6 80 -15 19 -18 31 -11 38 17 17 37 3 75 -55 20 -30 44 -57 52
-61 14 -5 15 -17 9 -77 l-7 -72 34 -28 34 -27 -23 -24 c-12 -14 -22 -27 -22
-30 0 -4 16 -12 36 -18 32 -11 42 -10 81 10 l45 22 32 -31 c34 -33 143 -71
204 -71 28 0 35 5 48 37 27 63 30 68 48 71 9 2 36 -6 59 -17 30 -14 63 -21
104 -21 55 0 62 -2 69 -23 9 -31 21 -36 61 -27 43 10 63 28 108 96 65 97 128
123 163 65 17 -29 18 -29 41 -10 31 25 47 24 83 -6 16 -14 38 -25 49 -25 22 0
52 41 47 67 -4 26 34 29 57 3 13 -15 30 -20 66 -20 58 0 178 -37 199 -62 17
-20 104 -68 124 -68 7 0 20 -8 30 -18 9 -11 42 -25 74 -32 31 -6 68 -16 82
-20 14 -5 91 -11 172 -14 111 -3 150 -2 155 8 5 7 24 22 43 33 32 19 43 21
132 14 54 -4 122 -6 151 -3 37 3 63 -1 85 -12 34 -17 133 -21 279 -10 71 6 86
11 113 35 17 16 34 29 37 29 3 0 30 -14 59 -31 52 -29 57 -30 133 -24 67 6 87
4 135 -14 65 -24 93 -26 147 -10 33 10 43 9 81 -11 27 -14 68 -25 108 -28 63
-4 66 -3 78 22 18 40 79 29 126 -23 22 -25 49 -27 66 -6 7 8 18 15 26 15 23 0
54 42 54 75 0 17 7 41 16 54 17 23 22 24 97 5 24 -6 29 -3 42 29 19 47 27 50
69 33 30 -12 43 -13 93 -1 32 8 66 14 76 15 28 0 31 -26 6 -59 -21 -29 -21
-32 -6 -49 9 -10 17 -24 17 -31 0 -10 16 -12 68 -7 88 9 124 21 152 51 31 33
43 31 73 -6 20 -26 37 -33 112 -50 48 -11 96 -24 107 -30 13 -7 29 -7 54 1 21
7 58 9 99 5 51 -6 73 -4 102 10 53 24 73 44 73 71 0 12 12 36 26 53 l26 31
-50 57 c-64 75 -74 96 -67 136 5 27 -2 50 -41 125 -25 51 -51 92 -56 92 -5 0
-31 20 -57 45 -44 42 -56 47 -132 61 -46 8 -100 17 -119 20 -39 5 -83 -13 -88
-37 -4 -23 54 -97 80 -101 27 -4 31 -21 6 -26 -9 -2 -26 6 -37 17 -12 12 -27
21 -35 21 -8 0 -18 4 -21 10 -3 5 -25 18 -48 28 -23 11 -85 51 -137 91 -99 75
-130 85 -173 56 -37 -24 -128 -30 -165 -11 -18 9 -32 22 -32 29 0 7 -13 26
-29 41 -38 36 -132 51 -256 39 -100 -9 -162 1 -228 38 -42 23 -48 23 -382 17
-124 -2 -154 -6 -175 -20 -14 -10 -43 -18 -66 -18 -23 0 -49 -3 -58 -6 -24 -9
-19 -47 9 -74 48 -45 24 -107 -45 -112 -35 -3 -35 -3 -38 44 -2 28 -9 48 -17
52 -7 2 -57 0 -111 -5 -93 -10 -98 -9 -133 14 -56 37 -102 48 -193 47 -100 -2
-208 12 -266 34 -45 17 -39 17 -214 -14 -74 -14 -84 -22 -86 -77 -4 -82 -70
-114 -98 -48 -19 46 -57 61 -173 69 -51 3 -101 11 -111 16 -10 6 -33 10 -50
10 -18 0 -50 10 -71 22 -37 20 -43 21 -116 10 -151 -24 -352 -10 -483 32 -47
15 -92 31 -101 36 -8 4 -45 11 -80 15 -60 6 -67 5 -95 -18 -23 -20 -111 -47
-151 -47 -2 0 -19 33 -39 73 -19 39 -45 85 -57 100 -31 40 -28 100 7 136 32
33 33 51 2 88 -20 24 -24 43 -29 126 l-5 99 36 40 c34 38 37 46 36 97 -1 39
-11 77 -32 123 -18 39 -36 101 -43 148 -11 79 -11 82 11 105 26 27 49 105 45
150 -5 54 -32 145 -49 164 -9 10 -16 31 -16 47 0 30 43 104 60 104 16 0 59 97
69 157 6 32 9 117 6 188 -4 126 -5 133 -42 210 -34 72 -38 87 -36 156 0 42 6
85 12 97 6 11 11 52 11 90 0 58 4 75 26 108 32 46 56 141 43 165 -13 25 -39
31 -65 14 -52 -34 -84 -10 -84 63 0 28 7 46 24 63 12 13 28 34 35 46 14 28 14
80 0 89 -7 4 -9 23 -4 53 3 25 9 64 12 86 7 54 18 64 67 63 55 -1 80 7 140 45
l49 31 23 -28 c13 -15 24 -31 24 -35 0 -20 -43 -43 -92 -50 -67 -9 -96 -25
-104 -57 -11 -44 5 -49 111 -35 115 15 149 32 172 87 15 36 23 43 63 52 25 6
68 14 95 17 48 6 53 4 86 -28 31 -30 45 -36 102 -42 37 -4 72 -14 78 -21 6 -8
17 -14 24 -14 7 0 18 -7 25 -15 8 -10 30 -15 62 -15 44 0 107 -11 238 -40 56
-13 108 -4 140 25 42 37 108 58 160 50 25 -4 51 -11 57 -17 16 -13 145 -38
195 -38 46 0 68 -8 68 -26 0 -8 12 -19 28 -25 15 -6 50 -22 79 -35 77 -37 124
-19 109 39 -7 31 -46 47 -129 54 l-69 6 5 40 c3 24 16 50 31 65 l25 25 63 -17
c84 -24 143 -52 158 -76 4 -6 5 -32 3 -58 -3 -26 0 -59 6 -74 10 -26 14 -28
71 -28 33 0 60 4 60 9 0 4 -22 22 -50 39 -27 17 -50 35 -50 40 0 29 100 60
220 68 47 4 98 13 114 20 41 20 51 18 71 -12 16 -25 16 -27 -11 -55 -16 -17
-40 -32 -54 -36 -40 -9 -100 -45 -100 -60 0 -7 11 -18 24 -23 14 -5 29 -18 35
-28 11 -22 82 -40 183 -49 49 -4 66 0 121 26 74 36 82 36 130 16 64 -27 96
-20 187 40 52 34 94 55 112 55 16 0 47 9 68 20 34 17 40 25 40 53 0 17 3 49 6
70 8 43 34 50 58 15 24 -34 20 -75 -9 -100 -32 -28 -31 -41 2 -83 22 -28 39
-37 83 -45 30 -6 76 -16 103 -21 45 -10 50 -9 97 21 28 18 50 36 50 40 0 16
74 79 112 96 40 18 41 18 59 -5 11 -13 19 -39 19 -58 l0 -36 -39 7 c-29 4 -44
2 -55 -10 -22 -21 -20 -51 3 -64 25 -13 24 -13 51 10 31 27 42 25 69 -11 23
-31 25 -31 84 -25 35 3 68 13 79 23 32 29 77 117 80 156 3 52 22 46 49 -13 27
-60 52 -71 109 -45 21 9 43 14 49 10 17 -10 44 -66 48 -99 1 -16 5 -31 7 -33
2 -2 26 -6 54 -10 69 -8 137 20 102 42 -19 12 -10 54 15 71 20 13 28 14 40 4
22 -19 18 -46 -11 -69 -24 -19 -25 -20 -5 -30 28 -15 47 -14 66 5 15 16 20 15
70 -1 l54 -19 43 39 c24 21 49 47 57 58 12 17 22 18 96 12 l83 -7 27 42 c14
23 29 49 32 58 3 9 21 39 40 65 46 65 53 86 54 165 1 37 6 72 11 79 6 7 5 19
-2 33 -6 12 -9 26 -7 33 6 18 -41 106 -71 133 -52 47 -97 64 -146 58 -51 -7
-87 11 -167 83 -38 34 -74 48 -161 60 -34 5 -39 2 -48 -21 -14 -39 -32 -41
-108 -12 -75 29 -96 29 -225 -1 -37 -8 -82 -12 -101 -9 -45 9 -61 1 -85 -40
-11 -19 -26 -34 -33 -34 -7 0 -38 17 -69 39 -74 51 -91 56 -118 32 -13 -11
-45 -27 -71 -36 -64 -21 -74 -35 -63 -82 6 -28 15 -38 36 -44 16 -4 35 -13 43
-20 19 -16 18 -68 -2 -76 -17 -6 -70 39 -80 69 -3 10 -10 18 -15 18 -6 0 -46
24 -90 53 -66 43 -79 56 -74 72 13 41 9 47 -42 68 -28 13 -60 30 -71 40 -18
16 -24 16 -91 2 -94 -20 -193 -19 -232 1 -26 13 -67 15 -255 12 -210 -3 -228
-5 -277 -26z m-4 -85 c45 -32 25 -137 -26 -137 -63 0 -91 90 -41 129 31 24 44
26 67 8z m-1737 -18 c8 -14 -18 -31 -30 -19 -9 9 0 30 14 30 5 0 12 -5 16 -11z
m1190 -294 c20 -48 50 -54 104 -20 23 15 43 25 44 23 1 -2 -2 -27 -7 -56 -8
-48 -12 -55 -42 -68 -19 -7 -36 -18 -40 -24 -3 -5 -23 -10 -45 -10 -40 0 -39
-1 -70 80 -9 25 -20 52 -24 61 -9 20 18 49 45 49 13 0 25 -12 35 -35z m354
-40 c19 -20 22 -30 14 -43 -26 -40 -114 -39 -122 2 -5 23 36 66 63 66 12 0 32
-11 45 -25z m188 -32 c3 -20 -1 -23 -27 -23 -33 0 -46 13 -37 36 9 25 60 14
64 -13z m-2478 -2 c0 -11 -26 -22 -34 -14 -12 12 -5 23 14 23 11 0 20 -4 20
-9z m-452 -108 c2 -8 -5 -13 -17 -13 -12 0 -21 6 -21 16 0 18 31 15 38 -3z
m3474 -53 c27 -24 30 -31 18 -39 -24 -16 -99 36 -85 59 11 18 34 11 67 -20z
m-123 4 c16 -11 21 -23 17 -37 -3 -12 3 -40 14 -63 10 -23 16 -45 12 -48 -10
-11 -68 -6 -85 7 -18 12 -43 130 -32 147 9 15 48 12 74 -6z m-287 -73 c33 -36
49 -67 41 -75 -11 -10 -93 -7 -116 6 -24 13 -62 57 -62 73 0 5 14 13 30 16 61
13 81 10 107 -20z m-2894 -28 c52 -36 86 -79 79 -101 -16 -47 -43 -118 -50
-129 -5 -7 -19 -13 -32 -13 -18 0 -37 18 -81 81 -45 65 -61 80 -77 75 -25 -6
-67 21 -67 44 0 13 11 19 40 23 22 3 57 14 78 25 50 27 62 27 110 -5z m0 -305
c26 -29 61 -106 62 -136 0 -28 -30 -69 -68 -94 -42 -28 -59 -23 -67 20 -4 20
-15 57 -25 82 -26 64 -33 115 -18 128 34 27 90 27 116 0z m170 -878 c1 -14 -6
-50 -16 -80 -22 -63 -52 -82 -97 -62 -42 19 -34 63 22 123 52 56 86 63 91 19z
m-181 -505 c41 -20 55 -39 51 -66 -3 -26 -49 -42 -101 -37 -44 4 -54 26 -32
76 21 46 35 51 82 27z m833 -1505 c19 -47 -2 -79 -30 -45 -12 15 -5 75 10 75
4 0 13 -13 20 -30z m684 -36 c21 -8 21 -58 0 -75 -33 -27 -72 33 -44 67 14 16
21 17 44 8z m1392 -161 c5 -19 2 -30 -10 -39 -35 -25 -58 5 -36 47 15 27 38
24 46 -8z m-2219 -49 c8 -21 -23 -52 -38 -37 -8 8 -8 17 0 32 14 25 29 27 38
5z m653 -19 c0 -16 -27 -32 -37 -22 -3 4 -3 13 0 22 8 20 37 20 37 0z m-227
-87 c24 -28 21 -60 -9 -118 -38 -73 -55 -68 -104 33 -41 85 -50 132 -27 140
20 6 121 -32 140 -55z m2932 -18 c27 -30 7 -89 -31 -90 -14 0 -34 44 -34 75 0
37 37 46 65 15z m1050 -271 c9 -13 -3 -59 -15 -59 -14 0 -32 39 -26 56 6 16
32 19 41 3z"/>
<path d="M15384 3066 c-3 -7 -4 -42 -2 -77 3 -61 4 -64 29 -67 25 -3 26 0 37
63 6 37 8 73 5 81 -7 18 -62 18 -69 0z"/>
<path d="M2303 2135 c-48 -48 -53 -57 -53 -98 0 -37 4 -47 20 -52 43 -14 83
29 105 114 27 107 7 117 -72 36z"/>
<path d="M8188 1864 c-47 -25 -34 -58 26 -67 60 -10 89 29 50 67 -19 20 -41
20 -76 0z"/>
<path d="M7573 1742 c-28 -4 -30 -18 -5 -31 21 -11 84 0 89 16 4 11 -46 20
-84 15z"/>
<path d="M14231 1152 c-17 -31 3 -46 57 -43 32 2 30 39 -4 51 -35 14 -42 13
-53 -8z"/>
<path d="M14587 822 c-21 -23 -5 -42 35 -42 21 0 28 5 28 20 0 10 -9 24 -19
30 -25 13 -25 13 -44 -8z"/>
<path d="M16323 685 c-18 -8 -33 -21 -33 -29 0 -9 -18 -27 -39 -40 -22 -14
-42 -30 -46 -36 -4 -7 -11 -55 -15 -108 -5 -59 -15 -112 -26 -135 -17 -35 -17
-40 -2 -64 26 -44 172 -88 257 -78 83 10 106 36 114 132 3 41 0 54 -15 67 -26
23 -23 62 7 82 14 9 25 26 25 39 0 12 6 41 14 63 13 35 12 43 0 61 -9 12 -26
21 -42 21 -15 0 -52 7 -82 16 -30 8 -62 17 -70 20 -8 2 -30 -3 -47 -11z"/>
</g>
</svg>
